<svg width="173" height="53" viewBox="0 0 173 53" fill="none" xmlns="http://www.w3.org/2000/svg">
<path d="M91.5486 49.0217L91.3481 48.042L91.5486 49.0217ZM171.466 0.000563622C172.018 -0.0179892 172.481 0.414436 172.499 0.966407L172.802 9.96133C172.82 10.5133 172.388 10.9758 171.836 10.9944C171.284 11.0129 170.821 10.5805 170.803 10.0285L170.534 2.03303L162.539 2.30177C161.987 2.32032 161.524 1.8879 161.506 1.33593C161.487 0.783952 161.92 0.32145 162.471 0.302899L171.466 0.000563622ZM4.19239 37.8616C4.68129 38.1186 4.86934 38.7232 4.61243 39.212C4.35552 39.7009 3.75093 39.889 3.26204 39.6321L4.19239 37.8616ZM12.8097 43.7104C12.2888 43.5268 12.0154 42.9557 12.199 42.4348C12.3827 41.914 12.9538 41.6406 13.4746 41.8242L12.8097 43.7104ZM18.303 43.3936C18.832 43.5522 19.1323 44.1096 18.9737 44.6386C18.815 45.1677 18.2576 45.4679 17.7286 45.3093L18.303 43.3936ZM27.7277 47.8909C27.1885 47.7717 26.8479 47.238 26.9671 46.6987C27.0863 46.1594 27.6201 45.8189 28.1594 45.9381L27.7277 47.8909ZM33.146 46.959C33.6887 47.0615 34.0454 47.5846 33.9429 48.1273C33.8403 48.67 33.3172 49.0267 32.7746 48.9242L33.146 46.959ZM42.9509 50.5505C42.4034 50.4783 42.018 49.976 42.0901 49.4284C42.1623 48.8809 42.6647 48.4955 43.2122 48.5676L42.9509 50.5505ZM48.2731 49.1662C48.8223 49.2238 49.2209 49.7158 49.1633 50.2651C49.1057 50.8143 48.6138 51.2129 48.0645 51.1553L48.2731 49.1662ZM58.335 51.9558C57.7834 51.9278 57.359 51.458 57.387 50.9064C57.415 50.3548 57.8848 49.9304 58.4364 49.9583L58.335 51.9558ZM63.5302 50.1449C64.0823 50.1572 64.52 50.6148 64.5077 51.1669C64.4954 51.7191 64.0378 52.1567 63.4857 52.1444L63.5302 50.1449ZM73.7954 52.0558C73.2436 52.0786 72.7778 51.6498 72.755 51.098C72.7321 50.5461 73.161 50.0803 73.7128 50.0575L73.7954 52.0558ZM78.7929 49.7545C79.3435 49.7111 79.825 50.1223 79.8683 50.6729C79.9117 51.2235 79.5005 51.705 78.9499 51.7483L78.7929 49.7545ZM89.2048 50.4825C88.6607 50.5772 88.1429 50.2129 88.0481 49.6688C87.9534 49.1247 88.3177 48.6068 88.8618 48.5121L89.2048 50.4825ZM93.8612 47.4742C94.3974 47.342 94.9393 47.6696 95.0714 48.2058C95.2036 48.7421 94.876 49.2839 94.3398 49.4161L93.8612 47.4742ZM104.431 46.2367C103.914 46.4313 103.337 46.17 103.142 45.6531C102.948 45.1363 103.209 44.5595 103.726 44.3649L104.431 46.2367ZM108.548 42.4256C109.056 42.2088 109.644 42.4448 109.86 42.9528C110.077 43.4607 109.841 44.0483 109.333 44.2651L108.548 42.4256ZM118.873 39.7841C118.381 40.035 117.779 39.8395 117.528 39.3475C117.277 38.8555 117.473 38.2532 117.965 38.0023L118.873 39.7841ZM122.574 35.5689C123.058 35.3044 123.666 35.483 123.93 35.9678C124.195 36.4526 124.016 37.0601 123.531 37.3246L122.574 35.5689ZM132.64 32.058C132.168 32.3456 131.553 32.1965 131.265 31.7249C130.978 31.2534 131.127 30.6381 131.598 30.3505L132.64 32.058ZM136.023 27.5858C136.488 27.2881 137.106 27.4239 137.404 27.8892C137.702 28.3544 137.566 28.9728 137.101 29.2704L136.023 27.5858ZM145.839 23.4236C145.386 23.7399 144.763 23.6294 144.447 23.1767C144.13 22.7239 144.241 22.1005 144.694 21.7842L145.839 23.4236ZM148.944 18.7505C149.39 18.4251 150.015 18.5231 150.341 18.9693C150.666 19.4156 150.568 20.0411 150.122 20.3665L148.944 18.7505ZM158.48 13.996C158.049 14.3405 157.419 14.2699 157.075 13.8382C156.73 13.4066 156.801 12.7773 157.233 12.4328L158.48 13.996ZM161.263 9.13146C161.686 8.7758 162.317 8.83 162.672 9.25253C163.028 9.67505 162.974 10.3059 162.551 10.6615L161.263 9.13146ZM170.392 3.57205C169.999 3.96091 169.366 3.95822 168.977 3.56603C168.588 3.17385 168.591 2.5407 168.983 2.15183L170.392 3.57205ZM2.01571 36.6411C2.70372 37.054 3.42995 37.461 4.19239 37.8616L3.26204 39.6321C2.46897 39.2153 1.70963 38.7899 0.986654 38.3561L2.01571 36.6411ZM13.4746 41.8242C15.0201 42.3691 16.6325 42.8927 18.303 43.3936L17.7286 45.3093C16.03 44.8001 14.3873 44.2666 12.8097 43.7104L13.4746 41.8242ZM28.1594 45.9381C29.7921 46.299 31.4563 46.6396 33.146 46.959L32.7746 48.9242C31.0654 48.6011 29.3811 48.2564 27.7277 47.8909L28.1594 45.9381ZM43.2122 48.5676C44.889 48.7886 46.5777 48.9885 48.2731 49.1662L48.0645 51.1553C46.3515 50.9757 44.6452 50.7738 42.9509 50.5505L43.2122 48.5676ZM58.4364 49.9583C60.1401 50.0448 61.8398 50.1073 63.5302 50.1449L63.4857 52.1444C61.7759 52.1063 60.0572 52.0432 58.335 51.9558L58.4364 49.9583ZM73.7128 50.0575C75.4309 49.9864 77.1263 49.8858 78.7929 49.7545L78.9499 51.7483C77.2574 51.8816 75.5371 51.9837 73.7954 52.0558L73.7128 50.0575ZM88.8618 48.5121C89.704 48.3655 90.5332 48.2088 91.3481 48.042L91.7492 50.0014C90.9142 50.1723 90.0657 50.3326 89.2048 50.4825L88.8618 48.5121ZM91.3481 48.042C92.176 47.8725 93.0141 47.6829 93.8612 47.4742L94.3398 49.4161C93.4683 49.6308 92.6044 49.8263 91.7492 50.0014L91.3481 48.042ZM103.726 44.3649C105.319 43.7651 106.928 43.1169 108.548 42.4256L109.333 44.2651C107.689 44.9668 106.053 45.626 104.431 46.2367L103.726 44.3649ZM117.965 38.0023C119.503 37.2181 121.04 36.4054 122.574 35.5689L123.531 37.3246C121.983 38.1695 120.429 38.9909 118.873 39.7841L117.965 38.0023ZM131.598 30.3505C133.088 29.4419 134.565 28.5188 136.023 27.5858L137.101 29.2704C135.631 30.211 134.142 31.1417 132.64 32.058L131.598 30.3505ZM144.694 21.7842C146.142 20.7718 147.561 19.7588 148.944 18.7505L150.122 20.3665C148.728 21.3827 147.299 22.4035 145.839 23.4236L144.694 21.7842ZM157.233 12.4328C158.643 11.307 159.989 10.2036 161.263 9.13146L162.551 10.6615C161.263 11.7455 159.904 12.8598 158.48 13.996L157.233 12.4328ZM168.983 2.15183C169.631 1.51 170.227 0.897296 170.77 0.317046L172.23 1.68295C171.669 2.28397 171.054 2.91485 170.392 3.57205L168.983 2.15183Z" fill="#D0D0D0"/>
</svg>
