<svg width="176" height="35" viewBox="0 0 176 35" fill="none" xmlns="http://www.w3.org/2000/svg">
<path d="M85.8518 1.15927L85.8877 2.15862L85.8518 1.15927ZM175.069 29.9722C175.61 29.8602 175.958 29.3309 175.846 28.7901L174.02 19.9772C173.908 19.4364 173.379 19.0888 172.838 19.2008C172.297 19.3128 171.95 19.842 172.062 20.3828L173.684 28.2166L165.851 29.8391C165.31 29.9511 164.962 30.4803 165.074 31.0211C165.186 31.5619 165.715 31.9095 166.256 31.7975L175.069 29.9722ZM3.58378 32.586C3.99838 32.2211 4.03871 31.5892 3.67384 31.1746C3.30898 30.76 2.6771 30.7197 2.2625 31.0845L3.58378 32.586ZM10.5805 24.8716C10.1176 25.1728 9.98644 25.7922 10.2876 26.2552C10.5888 26.7181 11.2082 26.8492 11.6712 26.5481L10.5805 24.8716ZM15.9939 23.8853C16.4706 23.6066 16.6311 22.9941 16.3523 22.5173C16.0735 22.0406 15.4611 21.8801 14.9843 22.1588L15.9939 23.8853ZM24.0938 17.2941C23.5978 17.537 23.3926 18.136 23.6355 18.632C23.8784 19.128 24.4774 19.3332 24.9734 19.0903L24.0938 17.2941ZM29.5791 16.9234C30.0823 16.6958 30.3058 16.1034 30.0783 15.6002C29.8507 15.097 29.2583 14.8735 28.7551 15.101L29.5791 16.9234ZM38.2618 11.1229C37.7467 11.3221 37.4905 11.9011 37.6897 12.4162C37.8888 12.9314 38.4678 13.1875 38.983 12.9884L38.2618 11.1229ZM43.7603 11.2144C44.2805 11.029 44.552 10.457 44.3666 9.93671C44.1813 9.41647 43.6092 9.145 43.089 9.33038L43.7603 11.2144ZM52.8818 6.13277C52.3524 6.28991 52.0505 6.84651 52.2077 7.37597C52.3648 7.90543 52.9214 8.20725 53.4509 8.0501L52.8818 6.13277ZM58.3574 6.66871C58.8911 6.52668 59.2086 5.97889 59.0666 5.44518C58.9246 4.91147 58.3768 4.59395 57.8431 4.73598L58.3574 6.66871ZM67.8835 2.39317C67.3418 2.501 66.9901 3.0275 67.098 3.56916C67.2058 4.11082 67.7323 4.46251 68.274 4.35469L67.8835 2.39317ZM73.2824 3.45229C73.8277 3.36471 74.1988 2.85167 74.1112 2.30637C74.0236 1.76107 73.5106 1.39002 72.9653 1.47759L73.2824 3.45229ZM83.2298 0.291798C82.6787 0.327928 82.2612 0.803972 82.2973 1.35507C82.3335 1.90618 82.8095 2.32364 83.3606 2.28751L83.2298 0.291798ZM88.4638 2.1184C89.0161 2.12049 89.4655 1.67448 89.4676 1.1222C89.4697 0.56992 89.0237 0.120509 88.4714 0.118412L88.4638 2.1184ZM99.0273 0.830924C98.4792 0.763588 97.9802 1.15338 97.9129 1.70154C97.8455 2.24971 98.2353 2.74867 98.7835 2.816L99.0273 0.830924ZM103.927 3.56468C104.471 3.65569 104.987 3.28788 105.078 2.74315C105.169 2.19842 104.801 1.68304 104.256 1.59202L103.927 3.56468ZM114.584 3.69929C114.046 3.57138 113.507 3.90322 113.379 4.44049C113.251 4.97776 113.583 5.517 114.12 5.64491L114.584 3.69929ZM119.173 6.92402C119.706 7.06688 120.255 6.75021 120.397 6.21672C120.54 5.68324 120.224 5.13495 119.69 4.99209L119.173 6.92402ZM129.783 7.9645C129.257 7.79613 128.694 8.08603 128.526 8.61202C128.357 9.13802 128.647 9.70091 129.173 9.86929L129.783 7.9645ZM134.124 11.5138C134.647 11.6935 135.216 11.4158 135.395 10.8936C135.575 10.3713 135.297 9.8023 134.775 9.62263L134.124 11.5138ZM144.645 13.2462C144.13 13.0454 143.55 13.2997 143.35 13.8142C143.149 14.3287 143.403 14.9086 143.918 15.1093L144.645 13.2462ZM148.763 17.0563C149.273 17.2674 149.858 17.0248 150.069 16.5145C150.28 16.0042 150.038 15.4193 149.527 15.2082L148.763 17.0563ZM159.151 19.4302C158.651 19.1971 158.056 19.414 157.823 19.9146C157.589 20.4153 157.806 21.0102 158.307 21.2433L159.151 19.4302ZM163.002 23.5021C163.496 23.7482 164.097 23.5469 164.343 23.0525C164.589 22.5581 164.388 21.9578 163.893 21.7117L163.002 23.5021ZM173.183 26.7545C172.71 26.4689 172.096 26.6207 171.81 27.0935C171.525 27.5662 171.676 28.1809 172.149 28.4665L173.183 26.7545ZM1.75592 34.2849C2.32729 33.7216 2.93719 33.155 3.58378 32.586L2.2625 31.0845C1.58995 31.6764 0.952212 32.2688 0.351793 32.8607L1.75592 34.2849ZM11.6712 26.5481C13.0448 25.6545 14.4884 24.7657 15.9939 23.8853L14.9843 22.1588C13.4535 23.0539 11.9828 23.9594 10.5805 24.8716L11.6712 26.5481ZM24.9734 19.0903C26.4751 18.3549 28.0122 17.6318 29.5791 16.9234L28.7551 15.101C27.1702 15.8176 25.6145 16.5495 24.0938 17.2941L24.9734 19.0903ZM38.983 12.9884C40.5604 12.3786 42.1545 11.7865 43.7603 11.2144L43.089 9.33038C41.4665 9.90851 39.8559 10.5067 38.2618 11.1229L38.983 12.9884ZM53.4509 8.0501C55.0863 7.5647 56.7234 7.10354 58.3574 6.66871L57.8431 4.73598C56.1904 5.17579 54.535 5.64211 52.8818 6.13277L53.4509 8.0501ZM68.274 4.35469C69.9605 4.01897 71.6319 3.71736 73.2824 3.45229L72.9653 1.47759C71.289 1.74679 69.5931 2.05285 67.8835 2.39317L68.274 4.35469ZM83.3606 2.28751C84.2137 2.23159 85.0564 2.18849 85.8877 2.15862L85.8159 0.15991C84.9641 0.190519 84.1017 0.234637 83.2298 0.291798L83.3606 2.28751ZM85.8877 2.15862C86.7323 2.12827 87.5913 2.11509 88.4638 2.1184L88.4714 0.118412C87.5739 0.115005 86.6883 0.128561 85.8159 0.15991L85.8877 2.15862ZM98.7835 2.816C100.473 3.02356 102.19 3.27445 103.927 3.56468L104.256 1.59202C102.493 1.29739 100.748 1.04226 99.0273 0.830924L98.7835 2.816ZM114.12 5.64491C115.8 6.04476 117.486 6.47226 119.173 6.92402L119.69 4.99209C117.986 4.53577 116.282 4.10368 114.584 3.69929L114.12 5.64491ZM129.173 9.86929C130.835 10.4013 132.487 10.9506 134.124 11.5138L134.775 9.62263C133.125 9.05488 131.459 8.50104 129.783 7.9645L129.173 9.86929ZM143.918 15.1093C145.564 15.7518 147.181 16.4022 148.763 17.0563L149.527 15.2082C147.934 14.5489 146.304 13.8936 144.645 13.2462L143.918 15.1093ZM158.307 21.2433C159.943 22.0051 161.511 22.7602 163.002 23.5021L163.893 21.7117C162.386 20.9617 160.802 20.199 159.151 19.4302L158.307 21.2433ZM172.149 28.4665C172.929 28.9377 173.653 29.3927 174.317 29.8288L175.415 28.1571C174.728 27.7054 173.982 27.237 173.183 26.7545L172.149 28.4665Z" fill="#D0D0D0"/>
</svg>
