<svg width="23" height="23" viewBox="0 0 23 23" fill="none" xmlns="http://www.w3.org/2000/svg">
<path fill-rule="evenodd" clip-rule="evenodd" d="M0.204102 11.4998C0.204102 5.26108 5.26163 0.203552 11.5004 0.203552C14.4964 0.203552 17.3696 1.39369 19.4881 3.51216C21.6066 5.63063 22.7967 8.50389 22.7967 11.4998C22.7967 17.7386 17.7392 22.7961 11.5004 22.7961C5.26163 22.7961 0.204102 17.7386 0.204102 11.4998ZM13.7592 17.1477C15.007 17.1477 16.0185 16.1362 16.0185 14.8884V14.606C16.0185 14.2941 15.7656 14.0412 15.4537 14.0412H14.6064C14.2945 14.0412 14.0416 14.2941 14.0416 14.606V14.8884C14.0416 15.0444 13.9152 15.1708 13.7592 15.1708H10.5285C10.7619 14.5359 10.899 13.8695 10.9352 13.194C10.9467 13.0059 10.9467 12.8173 10.9352 12.6292H12.0648C12.3767 12.6292 12.6296 12.3763 12.6296 12.0643V10.9347C12.6296 10.6228 12.3767 10.3699 12.0648 10.3699H10.3139C10.1916 10.0043 10.1157 9.62478 10.0879 9.24027C10.0822 8.53538 10.5972 7.93425 11.2946 7.83178C11.9921 7.7293 12.6582 8.15687 12.8555 8.8336C12.9258 9.07459 13.1467 9.24027 13.3977 9.24027H14.2676C14.4365 9.2377 14.5965 9.16385 14.7081 9.03693C14.8114 8.90198 14.8525 8.7295 14.8211 8.56249C14.4746 6.85626 12.8916 5.69016 11.1594 5.86513C9.42715 6.0401 8.10933 7.49921 8.11108 9.24027C8.12093 9.61786 8.17399 9.99308 8.26922 10.3586H7.54626C7.23432 10.3586 6.98145 10.6115 6.98145 10.9234V12.053C6.98145 12.365 7.23432 12.6179 7.54626 12.6179H8.93571C8.97984 12.8029 9.00258 12.9924 9.00348 13.1827C8.85849 14.1692 8.55724 15.1263 8.11108 16.018C8.00644 16.2183 8.02853 16.4612 8.16756 16.6393L8.46126 16.9669C8.57061 17.0809 8.72127 17.1461 8.87922 17.1477H13.7592Z" fill="white"/>
</svg>
