<svg width="1018" height="89" viewBox="0 0 1018 89" fill="none" xmlns="http://www.w3.org/2000/svg">
<path d="M14.392 28.666C22.384 28.666 28.045 22.672 28.045 14.902C28.045 7.132 22.384 1.138 14.392 1.138C6.4 1.138 0.739 7.132 0.739 14.902C0.739 22.672 6.4 28.666 14.392 28.666ZM14.392 25.336C8.398 25.336 4.513 20.637 4.513 14.902C4.513 9.167 8.398 4.468 14.392 4.468C20.386 4.468 24.271 9.167 24.271 14.902C24.271 20.637 20.386 25.336 14.392 25.336ZM47.1012 10.462H43.7712V19.49C43.7712 23.56 41.6622 25.336 38.8872 25.336C36.7782 25.336 34.8912 24.115 34.8912 20.822V10.462H31.5612V21.747C31.5612 26.409 34.5212 28.444 37.9252 28.444C40.6262 28.444 42.8462 27.149 43.6972 25.299H43.7712V28H47.1012V10.462ZM51.3807 28H54.7107V19.194C54.7107 15.346 56.4867 13.57 59.7427 13.57C60.2607 13.57 60.8157 13.681 61.3707 13.829L61.5187 10.24C61.0747 10.092 60.5567 10.018 60.0387 10.018C57.8557 10.018 55.6357 11.313 54.7847 13.163H54.7107V10.462H51.3807V28ZM91.4679 10.462H88.1379V12.978H88.0639C86.7689 11.091 84.3269 10.018 81.9589 10.018C76.5199 10.018 73.0419 14.051 73.0419 19.231C73.0049 24.337 76.8159 28.222 81.9589 28.222C84.3639 28.222 86.7689 27.223 88.0269 25.114H88.1379V27.704C88.1379 30.664 86.7689 33.772 81.8109 33.772C79.2579 33.772 77.2969 32.773 75.5579 30.923L73.3009 33.735C75.7799 36.029 78.5549 36.88 81.8849 36.88C87.6199 36.88 91.4679 33.143 91.4679 27.852V10.462ZM82.3659 13.126C85.9179 13.126 88.1379 15.679 88.1379 19.231C88.1379 22.783 85.9179 25.114 82.3659 25.114C78.8139 25.114 76.5939 22.783 76.5939 19.231C76.5939 15.679 78.8139 13.126 82.3659 13.126ZM98.4731 19.231C98.4731 15.679 100.693 13.126 104.245 13.126C107.797 13.126 110.017 15.679 110.017 19.231C110.017 22.783 107.797 25.336 104.245 25.336C100.693 25.336 98.4731 22.783 98.4731 19.231ZM94.9211 19.231C94.9211 24.337 99.0281 28.444 104.245 28.444C109.462 28.444 113.569 24.337 113.569 19.231C113.569 14.125 109.462 10.018 104.245 10.018C99.0281 10.018 94.9211 14.125 94.9211 19.231ZM119.073 14.68C120.294 13.755 121.515 12.682 124.068 12.682C126.917 12.682 128.249 14.569 128.249 16.382V17.122H125.807C120.479 17.122 116.15 18.676 116.15 23.19C116.15 26.594 118.962 28.444 122.218 28.444C124.882 28.444 126.88 27.593 128.36 25.336H128.434C128.434 26.224 128.471 27.112 128.545 28H131.505C131.394 27.075 131.357 26.039 131.357 24.818V15.864C131.357 12.83 129.211 10.018 124.031 10.018C121.589 10.018 118.925 10.869 117.075 12.608L119.073 14.68ZM128.249 19.564V20.674C128.249 23.042 126.954 25.78 123.254 25.78C120.96 25.78 119.48 24.929 119.48 22.931C119.48 20.119 123.328 19.564 126.473 19.564H128.249ZM135.706 28H139.036V0.0279984H135.706V28ZM153.413 28H156.743V10.462H153.413V28ZM152.636 4.172C152.636 5.504 153.746 6.614 155.078 6.614C156.41 6.614 157.52 5.504 157.52 4.172C157.52 2.84 156.41 1.73 155.078 1.73C153.746 1.73 152.636 2.84 152.636 4.172ZM173.217 12.904C171.959 10.832 169.554 10.018 167.223 10.018C163.93 10.018 160.563 11.757 160.563 15.42C160.563 18.787 163.079 19.712 165.928 20.415C167.371 20.748 170.146 21.118 170.146 23.116C170.146 24.633 168.296 25.336 166.594 25.336C164.67 25.336 163.412 24.337 162.339 23.264L159.823 25.336C161.562 27.704 163.708 28.444 166.594 28.444C170.072 28.444 173.698 26.89 173.698 22.931C173.698 19.638 171.478 18.528 168.592 17.825C167.112 17.492 164.115 17.196 164.115 15.087C164.115 13.829 165.484 13.126 167.038 13.126C168.703 13.126 169.85 13.903 170.627 14.865L173.217 12.904ZM195.959 10.462H191.186V5.541H187.856V10.462H184.008V13.348H187.856V22.487C187.856 25.299 187.93 28.444 193.073 28.444C193.739 28.444 195.293 28.296 196.07 27.852V24.818C195.404 25.225 194.479 25.336 193.702 25.336C191.186 25.336 191.186 23.264 191.186 21.303V13.348H195.959V10.462ZM202.216 19.231C202.216 15.679 204.436 13.126 207.988 13.126C211.54 13.126 213.76 15.679 213.76 19.231C213.76 22.783 211.54 25.336 207.988 25.336C204.436 25.336 202.216 22.783 202.216 19.231ZM198.664 19.231C198.664 24.337 202.771 28.444 207.988 28.444C213.205 28.444 217.312 24.337 217.312 19.231C217.312 14.125 213.205 10.018 207.988 10.018C202.771 10.018 198.664 14.125 198.664 19.231ZM247.877 10.462H244.547V12.978H244.473C243.178 11.091 240.736 10.018 238.368 10.018C232.929 10.018 229.451 14.051 229.451 19.231C229.414 24.337 233.225 28.222 238.368 28.222C240.773 28.222 243.178 27.223 244.436 25.114H244.547V27.704C244.547 30.664 243.178 33.772 238.22 33.772C235.667 33.772 233.706 32.773 231.967 30.923L229.71 33.735C232.189 36.029 234.964 36.88 238.294 36.88C244.029 36.88 247.877 33.143 247.877 27.852V10.462ZM238.775 13.126C242.327 13.126 244.547 15.679 244.547 19.231C244.547 22.783 242.327 25.114 238.775 25.114C235.223 25.114 233.003 22.783 233.003 19.231C233.003 15.679 235.223 13.126 238.775 13.126ZM252.44 28H255.77V10.462H252.44V28ZM251.663 4.172C251.663 5.504 252.773 6.614 254.105 6.614C255.437 6.614 256.547 5.504 256.547 4.172C256.547 2.84 255.437 1.73 254.105 1.73C252.773 1.73 251.663 2.84 251.663 4.172ZM265.362 28H269.025L275.907 10.462H272.355L267.323 23.893L262.069 10.462H258.221L265.362 28ZM294.666 20.452V19.268C294.666 14.754 292.298 10.018 286.119 10.018C280.865 10.018 277.054 13.977 277.054 19.231C277.054 24.448 280.532 28.444 286.082 28.444C289.449 28.444 292.002 27.26 293.852 24.855L291.336 22.931C290.041 24.522 288.561 25.558 286.526 25.558C283.455 25.558 280.606 23.523 280.606 20.452H294.666ZM280.606 17.788C280.606 15.457 282.752 12.682 286.045 12.682C289.412 12.682 291.04 14.865 291.114 17.788H280.606ZM324.043 20.452V19.268C324.043 14.754 321.675 10.018 315.496 10.018C310.242 10.018 306.431 13.977 306.431 19.231C306.431 24.448 309.909 28.444 315.459 28.444C318.826 28.444 321.379 27.26 323.229 24.855L320.713 22.931C319.418 24.522 317.938 25.558 315.903 25.558C312.832 25.558 309.983 23.523 309.983 20.452H324.043ZM309.983 17.788C309.983 15.457 312.129 12.682 315.422 12.682C318.789 12.682 320.417 14.865 320.491 17.788H309.983ZM332.319 28H335.982L342.864 10.462H339.312L334.28 23.893L329.026 10.462H325.178L332.319 28ZM361.623 20.452V19.268C361.623 14.754 359.255 10.018 353.076 10.018C347.822 10.018 344.011 13.977 344.011 19.231C344.011 24.448 347.489 28.444 353.039 28.444C356.406 28.444 358.959 27.26 360.809 24.855L358.293 22.931C356.998 24.522 355.518 25.558 353.483 25.558C350.412 25.558 347.563 23.523 347.563 20.452H361.623ZM347.563 17.788C347.563 15.457 349.709 12.682 353.002 12.682C356.369 12.682 357.997 14.865 358.071 17.788H347.563ZM364.866 28H368.196V19.194C368.196 15.346 369.972 13.57 373.228 13.57C373.746 13.57 374.301 13.681 374.856 13.829L375.004 10.24C374.56 10.092 374.042 10.018 373.524 10.018C371.341 10.018 369.121 11.313 368.27 13.163H368.196V10.462H364.866V28ZM383 28.111L381.927 30.886C381.261 32.625 380.632 33.772 378.523 33.772C377.857 33.772 377.154 33.624 376.525 33.365L376.118 36.399C377.043 36.769 378.079 36.88 379.078 36.88C382.741 36.88 383.888 34.808 385.072 31.774L393.397 10.462H389.808L384.85 24.152H384.776L379.559 10.462H375.711L383 28.111ZM398.281 19.231C398.281 15.679 400.501 13.126 404.053 13.126C407.605 13.126 409.825 15.679 409.825 19.231C409.825 22.783 407.605 25.336 404.053 25.336C400.501 25.336 398.281 22.783 398.281 19.231ZM394.729 19.231C394.729 24.337 398.836 28.444 404.053 28.444C409.27 28.444 413.377 24.337 413.377 19.231C413.377 14.125 409.27 10.018 404.053 10.018C398.836 10.018 394.729 14.125 394.729 19.231ZM416.809 28H420.139V18.972C420.139 14.902 422.248 13.126 425.023 13.126C427.132 13.126 429.019 14.347 429.019 17.64V28H432.349V16.715C432.349 12.053 429.389 10.018 425.985 10.018C423.284 10.018 421.064 11.313 420.213 13.163H420.139V10.462H416.809V28ZM453.205 20.452V19.268C453.205 14.754 450.837 10.018 444.658 10.018C439.404 10.018 435.593 13.977 435.593 19.231C435.593 24.448 439.071 28.444 444.621 28.444C447.988 28.444 450.541 27.26 452.391 24.855L449.875 22.931C448.58 24.522 447.1 25.558 445.065 25.558C441.994 25.558 439.145 23.523 439.145 20.452H453.205ZM439.145 17.788C439.145 15.457 441.291 12.682 444.584 12.682C447.951 12.682 449.579 14.865 449.653 17.788H439.145ZM475.404 10.462H470.631V5.541H467.301V10.462H463.453V13.348H467.301V22.487C467.301 25.299 467.375 28.444 472.518 28.444C473.184 28.444 474.738 28.296 475.515 27.852V24.818C474.849 25.225 473.924 25.336 473.147 25.336C470.631 25.336 470.631 23.264 470.631 21.303V13.348H475.404V10.462ZM478.961 28H482.291V18.972C482.291 14.902 484.4 13.126 487.175 13.126C489.284 13.126 491.171 14.347 491.171 17.64V28H494.501V16.715C494.501 12.053 491.541 10.018 488.137 10.018C485.436 10.018 483.216 11.313 482.365 13.163H482.291V0.0279984H478.961V28ZM515.356 20.452V19.268C515.356 14.754 512.988 10.018 506.809 10.018C501.555 10.018 497.744 13.977 497.744 19.231C497.744 24.448 501.222 28.444 506.772 28.444C510.139 28.444 512.692 27.26 514.542 24.855L512.026 22.931C510.731 24.522 509.251 25.558 507.216 25.558C504.145 25.558 501.296 23.523 501.296 20.452H515.356ZM501.296 17.788C501.296 15.457 503.442 12.682 506.735 12.682C510.102 12.682 511.73 14.865 511.804 17.788H501.296ZM530.859 19.231C530.859 15.679 533.079 13.126 536.631 13.126C540.183 13.126 542.403 15.679 542.403 19.231C542.403 22.783 540.183 25.336 536.631 25.336C533.079 25.336 530.859 22.783 530.859 19.231ZM527.307 19.231C527.307 24.337 531.414 28.444 536.631 28.444C541.848 28.444 545.955 24.337 545.955 19.231C545.955 14.125 541.848 10.018 536.631 10.018C531.414 10.018 527.307 14.125 527.307 19.231ZM549.386 38.434H552.716V25.484H552.79C553.974 27.297 556.379 28.444 558.895 28.444C564.297 28.444 567.812 24.485 567.812 19.231C567.812 14.051 564.334 10.018 558.895 10.018C556.527 10.018 554.085 11.091 552.79 12.978H552.716V10.462H549.386V38.434ZM558.488 13.126C562.04 13.126 564.26 15.679 564.26 19.231C564.26 22.783 562.04 25.336 558.488 25.336C554.936 25.336 552.716 22.783 552.716 19.231C552.716 15.679 554.936 13.126 558.488 13.126ZM571.265 38.434H574.595V25.484H574.669C575.853 27.297 578.258 28.444 580.774 28.444C586.176 28.444 589.691 24.485 589.691 19.231C589.691 14.051 586.213 10.018 580.774 10.018C578.406 10.018 575.964 11.091 574.669 12.978H574.595V10.462H571.265V38.434ZM580.367 13.126C583.919 13.126 586.139 15.679 586.139 19.231C586.139 22.783 583.919 25.336 580.367 25.336C576.815 25.336 574.595 22.783 574.595 19.231C574.595 15.679 576.815 13.126 580.367 13.126ZM595.846 19.231C595.846 15.679 598.066 13.126 601.618 13.126C605.17 13.126 607.39 15.679 607.39 19.231C607.39 22.783 605.17 25.336 601.618 25.336C598.066 25.336 595.846 22.783 595.846 19.231ZM592.294 19.231C592.294 24.337 596.401 28.444 601.618 28.444C606.835 28.444 610.942 24.337 610.942 19.231C610.942 14.125 606.835 10.018 601.618 10.018C596.401 10.018 592.294 14.125 592.294 19.231ZM614.373 28H617.703V19.194C617.703 15.346 619.479 13.57 622.735 13.57C623.253 13.57 623.808 13.681 624.363 13.829L624.511 10.24C624.067 10.092 623.549 10.018 623.031 10.018C620.848 10.018 618.628 11.313 617.777 13.163H617.703V10.462H614.373V28ZM636.726 10.462H631.953V5.541H628.623V10.462H624.775V13.348H628.623V22.487C628.623 25.299 628.697 28.444 633.84 28.444C634.506 28.444 636.06 28.296 636.837 27.852V24.818C636.171 25.225 635.246 25.336 634.469 25.336C631.953 25.336 631.953 23.264 631.953 21.303V13.348H636.726V10.462ZM655.822 10.462H652.492V19.49C652.492 23.56 650.383 25.336 647.608 25.336C645.499 25.336 643.612 24.115 643.612 20.822V10.462H640.282V21.747C640.282 26.409 643.242 28.444 646.646 28.444C649.347 28.444 651.567 27.149 652.418 25.299H652.492V28H655.822V10.462ZM660.102 28H663.432V18.972C663.432 14.902 665.541 13.126 668.316 13.126C670.425 13.126 672.312 14.347 672.312 17.64V28H675.642V16.715C675.642 12.053 672.682 10.018 669.278 10.018C666.577 10.018 664.357 11.313 663.506 13.163H663.432V10.462H660.102V28ZM680.18 28H683.51V10.462H680.18V28ZM679.403 4.172C679.403 5.504 680.513 6.614 681.845 6.614C683.177 6.614 684.287 5.504 684.287 4.172C684.287 2.84 683.177 1.73 681.845 1.73C680.513 1.73 679.403 2.84 679.403 4.172ZM697.468 10.462H692.695V5.541H689.365V10.462H685.517V13.348H689.365V22.487C689.365 25.299 689.439 28.444 694.582 28.444C695.248 28.444 696.802 28.296 697.579 27.852V24.818C696.913 25.225 695.988 25.336 695.211 25.336C692.695 25.336 692.695 23.264 692.695 21.303V13.348H697.468V10.462ZM706.204 28.111L705.131 30.886C704.465 32.625 703.836 33.772 701.727 33.772C701.061 33.772 700.358 33.624 699.729 33.365L699.322 36.399C700.247 36.769 701.283 36.88 702.282 36.88C705.945 36.88 707.092 34.808 708.276 31.774L716.601 10.462H713.012L708.054 24.152H707.98L702.763 10.462H698.915L706.204 28.111ZM737.74 10.462H732.967V5.541H729.637V10.462H725.789V13.348H729.637V22.487C729.637 25.299 729.711 28.444 734.854 28.444C735.52 28.444 737.074 28.296 737.851 27.852V24.818C737.185 25.225 736.26 25.336 735.483 25.336C732.967 25.336 732.967 23.264 732.967 21.303V13.348H737.74V10.462ZM743.997 19.231C743.997 15.679 746.217 13.126 749.769 13.126C753.321 13.126 755.541 15.679 755.541 19.231C755.541 22.783 753.321 25.336 749.769 25.336C746.217 25.336 743.997 22.783 743.997 19.231ZM740.445 19.231C740.445 24.337 744.552 28.444 749.769 28.444C754.986 28.444 759.093 24.337 759.093 19.231C759.093 14.125 754.986 10.018 749.769 10.018C744.552 10.018 740.445 14.125 740.445 19.231ZM781.481 10.462H776.708V5.541H773.378V10.462H769.53V13.348H773.378V22.487C773.378 25.299 773.452 28.444 778.595 28.444C779.261 28.444 780.815 28.296 781.592 27.852V24.818C780.926 25.225 780.001 25.336 779.224 25.336C776.708 25.336 776.708 23.264 776.708 21.303V13.348H781.481V10.462ZM787.109 14.68C788.33 13.755 789.551 12.682 792.104 12.682C794.953 12.682 796.285 14.569 796.285 16.382V17.122H793.843C788.515 17.122 784.186 18.676 784.186 23.19C784.186 26.594 786.998 28.444 790.254 28.444C792.918 28.444 794.916 27.593 796.396 25.336H796.47C796.47 26.224 796.507 27.112 796.581 28H799.541C799.43 27.075 799.393 26.039 799.393 24.818V15.864C799.393 12.83 797.247 10.018 792.067 10.018C789.625 10.018 786.961 10.869 785.111 12.608L787.109 14.68ZM796.285 19.564V20.674C796.285 23.042 794.99 25.78 791.29 25.78C788.996 25.78 787.516 24.929 787.516 22.931C787.516 20.119 791.364 19.564 794.509 19.564H796.285ZM803.484 28H806.814V18.898L814.954 28H819.69L810.81 18.454L818.987 10.499H814.362L806.814 18.084V0.0279984H803.484V28ZM838.506 20.452V19.268C838.506 14.754 836.138 10.018 829.959 10.018C824.705 10.018 820.894 13.977 820.894 19.231C820.894 24.448 824.372 28.444 829.922 28.444C833.289 28.444 835.842 27.26 837.692 24.855L835.176 22.931C833.881 24.522 832.401 25.558 830.366 25.558C827.295 25.558 824.446 23.523 824.446 20.452H838.506ZM824.446 17.788C824.446 15.457 826.592 12.682 829.885 12.682C833.252 12.682 834.88 14.865 834.954 17.788H824.446ZM853.38 14.68C854.601 13.755 855.822 12.682 858.375 12.682C861.224 12.682 862.556 14.569 862.556 16.382V17.122H860.114C854.786 17.122 850.457 18.676 850.457 23.19C850.457 26.594 853.269 28.444 856.525 28.444C859.189 28.444 861.187 27.593 862.667 25.336H862.741C862.741 26.224 862.778 27.112 862.852 28H865.812C865.701 27.075 865.664 26.039 865.664 24.818V15.864C865.664 12.83 863.518 10.018 858.338 10.018C855.896 10.018 853.232 10.869 851.382 12.608L853.38 14.68ZM862.556 19.564V20.674C862.556 23.042 861.261 25.78 857.561 25.78C855.267 25.78 853.787 24.929 853.787 22.931C853.787 20.119 857.635 19.564 860.78 19.564H862.556ZM887.329 0.0279984H883.999V12.978H883.925C882.741 11.165 880.336 10.018 877.82 10.018C872.418 10.018 868.903 13.977 868.903 19.231C868.903 24.411 872.381 28.444 877.82 28.444C880.188 28.444 882.63 27.371 883.925 25.484H883.999V28H887.329V0.0279984ZM878.227 25.336C874.675 25.336 872.455 22.783 872.455 19.231C872.455 15.679 874.675 13.126 878.227 13.126C881.779 13.126 883.999 15.679 883.999 19.231C883.999 22.783 881.779 25.336 878.227 25.336ZM896.665 28H900.328L907.21 10.462H903.658L898.626 23.893L893.372 10.462H889.524L896.665 28ZM911.465 14.68C912.686 13.755 913.907 12.682 916.46 12.682C919.309 12.682 920.641 14.569 920.641 16.382V17.122H918.199C912.871 17.122 908.542 18.676 908.542 23.19C908.542 26.594 911.354 28.444 914.61 28.444C917.274 28.444 919.272 27.593 920.752 25.336H920.826C920.826 26.224 920.863 27.112 920.937 28H923.897C923.786 27.075 923.749 26.039 923.749 24.818V15.864C923.749 12.83 921.603 10.018 916.423 10.018C913.981 10.018 911.317 10.869 909.467 12.608L911.465 14.68ZM920.641 19.564V20.674C920.641 23.042 919.346 25.78 915.646 25.78C913.352 25.78 911.872 24.929 911.872 22.931C911.872 20.119 915.72 19.564 918.865 19.564H920.641ZM927.84 28H931.17V18.972C931.17 14.902 933.279 13.126 936.054 13.126C938.163 13.126 940.05 14.347 940.05 17.64V28H943.38V16.715C943.38 12.053 940.42 10.018 937.016 10.018C934.315 10.018 932.095 11.313 931.244 13.163H931.17V10.462H927.84V28ZM957.057 10.462H952.284V5.541H948.954V10.462H945.106V13.348H948.954V22.487C948.954 25.299 949.028 28.444 954.171 28.444C954.837 28.444 956.391 28.296 957.168 27.852V24.818C956.502 25.225 955.577 25.336 954.8 25.336C952.284 25.336 952.284 23.264 952.284 21.303V13.348H957.057V10.462ZM962.686 14.68C963.907 13.755 965.128 12.682 967.681 12.682C970.53 12.682 971.862 14.569 971.862 16.382V17.122H969.42C964.092 17.122 959.763 18.676 959.763 23.19C959.763 26.594 962.575 28.444 965.831 28.444C968.495 28.444 970.493 27.593 971.973 25.336H972.047C972.047 26.224 972.084 27.112 972.158 28H975.118C975.007 27.075 974.97 26.039 974.97 24.818V15.864C974.97 12.83 972.824 10.018 967.644 10.018C965.202 10.018 962.538 10.869 960.688 12.608L962.686 14.68ZM971.862 19.564V20.674C971.862 23.042 970.567 25.78 966.867 25.78C964.573 25.78 963.093 24.929 963.093 22.931C963.093 20.119 966.941 19.564 970.086 19.564H971.862ZM996.635 10.462H993.305V12.978H993.231C991.936 11.091 989.494 10.018 987.126 10.018C981.687 10.018 978.209 14.051 978.209 19.231C978.172 24.337 981.983 28.222 987.126 28.222C989.531 28.222 991.936 27.223 993.194 25.114H993.305V27.704C993.305 30.664 991.936 33.772 986.978 33.772C984.425 33.772 982.464 32.773 980.725 30.923L978.468 33.735C980.947 36.029 983.722 36.88 987.052 36.88C992.787 36.88 996.635 33.143 996.635 27.852V10.462ZM987.533 13.126C991.085 13.126 993.305 15.679 993.305 19.231C993.305 22.783 991.085 25.114 987.533 25.114C983.981 25.114 981.761 22.783 981.761 19.231C981.761 15.679 983.981 13.126 987.533 13.126ZM1017.52 20.452V19.268C1017.52 14.754 1015.15 10.018 1008.97 10.018C1003.71 10.018 999.903 13.977 999.903 19.231C999.903 24.448 1003.38 28.444 1008.93 28.444C1012.3 28.444 1014.85 27.26 1016.7 24.855L1014.19 22.931C1012.89 24.522 1011.41 25.558 1009.38 25.558C1006.3 25.558 1003.46 23.523 1003.46 20.452H1017.52ZM1003.46 17.788C1003.46 15.457 1005.6 12.682 1008.89 12.682C1012.26 12.682 1013.89 14.865 1013.96 17.788H1003.46ZM4.217 71.231C4.217 67.679 6.437 65.126 9.989 65.126C13.541 65.126 15.761 67.679 15.761 71.231C15.761 74.783 13.541 77.336 9.989 77.336C6.437 77.336 4.217 74.783 4.217 71.231ZM0.665 71.231C0.665 76.337 4.772 80.444 9.989 80.444C15.206 80.444 19.313 76.337 19.313 71.231C19.313 66.125 15.206 62.018 9.989 62.018C4.772 62.018 0.665 66.125 0.665 71.231ZM24.0398 80H27.3698V65.348H31.3658V62.462H27.4068V58.429C27.4068 55.987 27.8138 54.47 30.2558 54.47C30.9218 54.47 31.5138 54.544 32.1428 54.803L32.5128 51.843C31.5878 51.621 30.7738 51.584 30.0338 51.584C25.6678 51.584 24.0398 53.878 24.0398 58.54V62.462H20.2658V65.348H24.0398V80ZM53.2819 62.462H48.5089V57.541H45.1789V62.462H41.3309V65.348H45.1789V74.487C45.1789 77.299 45.2529 80.444 50.3959 80.444C51.0619 80.444 52.6159 80.296 53.3929 79.852V76.818C52.7269 77.225 51.8019 77.336 51.0249 77.336C48.5089 77.336 48.5089 75.264 48.5089 73.303V65.348H53.2819V62.462ZM56.8382 80H60.1682V70.972C60.1682 66.902 62.2772 65.126 65.0522 65.126C67.1612 65.126 69.0482 66.347 69.0482 69.64V80H72.3782V68.715C72.3782 64.053 69.4182 62.018 66.0142 62.018C63.3132 62.018 61.0932 63.313 60.2422 65.163H60.1682V52.028H56.8382V80ZM93.2338 72.452V71.268C93.2338 66.754 90.8658 62.018 84.6868 62.018C79.4328 62.018 75.6218 65.977 75.6218 71.231C75.6218 76.448 79.0998 80.444 84.6498 80.444C88.0168 80.444 90.5698 79.26 92.4198 76.855L89.9038 74.931C88.6088 76.522 87.1288 77.558 85.0938 77.558C82.0228 77.558 79.1738 75.523 79.1738 72.452H93.2338ZM79.1738 69.788C79.1738 67.457 81.3198 64.682 84.6128 64.682C87.9798 64.682 89.6078 66.865 89.6818 69.788H79.1738ZM106.035 80H109.365V70.898C109.365 66.939 111.511 65.126 113.916 65.126C117.135 65.126 117.616 67.494 117.616 70.824V80H120.946V70.417C120.946 67.309 122.204 65.126 125.423 65.126C128.642 65.126 129.197 67.568 129.197 70.232V80H132.527V69.788C132.527 65.866 131.269 62.018 125.867 62.018C123.758 62.018 121.464 63.128 120.317 65.274C119.207 63.128 117.431 62.018 114.841 62.018C111.696 62.018 109.55 64.164 109.217 65.2H109.143V62.462H106.035V80ZM139.504 71.231C139.504 67.679 141.724 65.126 145.276 65.126C148.828 65.126 151.048 67.679 151.048 71.231C151.048 74.783 148.828 77.336 145.276 77.336C141.724 77.336 139.504 74.783 139.504 71.231ZM135.952 71.231C135.952 76.337 140.059 80.444 145.276 80.444C150.493 80.444 154.6 76.337 154.6 71.231C154.6 66.125 150.493 62.018 145.276 62.018C140.059 62.018 135.952 66.125 135.952 71.231ZM169.946 64.904C168.688 62.832 166.283 62.018 163.952 62.018C160.659 62.018 157.292 63.757 157.292 67.42C157.292 70.787 159.808 71.712 162.657 72.415C164.1 72.748 166.875 73.118 166.875 75.116C166.875 76.633 165.025 77.336 163.323 77.336C161.399 77.336 160.141 76.337 159.068 75.264L156.552 77.336C158.291 79.704 160.437 80.444 163.323 80.444C166.801 80.444 170.427 78.89 170.427 74.931C170.427 71.638 168.207 70.528 165.321 69.825C163.841 69.492 160.844 69.196 160.844 67.087C160.844 65.829 162.213 65.126 163.767 65.126C165.432 65.126 166.579 65.903 167.356 66.865L169.946 64.904ZM183.13 62.462H178.357V57.541H175.027V62.462H171.179V65.348H175.027V74.487C175.027 77.299 175.101 80.444 180.244 80.444C180.91 80.444 182.464 80.296 183.241 79.852V76.818C182.575 77.225 181.65 77.336 180.873 77.336C178.357 77.336 178.357 75.264 178.357 73.303V65.348H183.13V62.462ZM211.303 64.83C209.564 62.943 207.122 62.055 204.569 62.055C199.093 62.055 195.393 65.903 195.393 71.305C195.393 76.707 199.167 80.444 204.569 80.444C207.122 80.444 209.49 79.667 211.229 77.743L208.861 75.375C207.751 76.67 206.456 77.336 204.606 77.336C201.165 77.336 198.945 74.672 198.945 71.379C198.945 68.086 200.795 65.163 204.421 65.163C206.271 65.163 207.566 65.829 208.787 67.124L211.303 64.83ZM228.894 62.462H225.564V71.49C225.564 75.56 223.455 77.336 220.68 77.336C218.571 77.336 216.684 76.115 216.684 72.822V62.462H213.354V73.747C213.354 78.409 216.314 80.444 219.718 80.444C222.419 80.444 224.639 79.149 225.49 77.299H225.564V80H228.894V62.462ZM242.572 62.462H237.799V57.541H234.469V62.462H230.621V65.348H234.469V74.487C234.469 77.299 234.543 80.444 239.686 80.444C240.352 80.444 241.906 80.296 242.683 79.852V76.818C242.017 77.225 241.092 77.336 240.315 77.336C237.799 77.336 237.799 75.264 237.799 73.303V65.348H242.572V62.462ZM255.526 62.462H250.753V57.541H247.423V62.462H243.575V65.348H247.423V74.487C247.423 77.299 247.497 80.444 252.64 80.444C253.306 80.444 254.86 80.296 255.637 79.852V76.818C254.971 77.225 254.046 77.336 253.269 77.336C250.753 77.336 250.753 75.264 250.753 73.303V65.348H255.526V62.462ZM259.341 80H262.671V62.462H259.341V80ZM258.564 56.172C258.564 57.504 259.674 58.614 261.006 58.614C262.338 58.614 263.448 57.504 263.448 56.172C263.448 54.84 262.338 53.73 261.006 53.73C259.674 53.73 258.564 54.84 258.564 56.172ZM267.231 80H270.561V70.972C270.561 66.902 272.67 65.126 275.445 65.126C277.554 65.126 279.441 66.347 279.441 69.64V80H282.771V68.715C282.771 64.053 279.811 62.018 276.407 62.018C273.706 62.018 271.486 63.313 270.635 65.163H270.561V62.462H267.231V80ZM304.625 62.462H301.295V64.978H301.221C299.926 63.091 297.484 62.018 295.116 62.018C289.677 62.018 286.199 66.051 286.199 71.231C286.162 76.337 289.973 80.222 295.116 80.222C297.521 80.222 299.926 79.223 301.184 77.114H301.295V79.704C301.295 82.664 299.926 85.772 294.968 85.772C292.415 85.772 290.454 84.773 288.715 82.923L286.458 85.735C288.937 88.029 291.712 88.88 295.042 88.88C300.777 88.88 304.625 85.143 304.625 79.852V62.462ZM295.523 65.126C299.075 65.126 301.295 67.679 301.295 71.231C301.295 74.783 299.075 77.114 295.523 77.114C291.971 77.114 289.751 74.783 289.751 71.231C289.751 67.679 291.971 65.126 295.523 65.126ZM316.811 69.492H307.709V72.6H316.811V69.492ZM336.473 72.452V71.268C336.473 66.754 334.105 62.018 327.926 62.018C322.672 62.018 318.861 65.977 318.861 71.231C318.861 76.448 322.339 80.444 327.889 80.444C331.256 80.444 333.809 79.26 335.659 76.855L333.143 74.931C331.848 76.522 330.368 77.558 328.333 77.558C325.262 77.558 322.413 75.523 322.413 72.452H336.473ZM322.413 69.788C322.413 67.457 324.559 64.682 327.852 64.682C331.219 64.682 332.847 66.865 332.921 69.788H322.413ZM357.291 52.028H353.961V64.978H353.887C352.703 63.165 350.298 62.018 347.782 62.018C342.38 62.018 338.865 65.977 338.865 71.231C338.865 76.411 342.343 80.444 347.782 80.444C350.15 80.444 352.592 79.371 353.887 77.484H353.961V80H357.291V52.028ZM348.189 77.336C344.637 77.336 342.417 74.783 342.417 71.231C342.417 67.679 344.637 65.126 348.189 65.126C351.741 65.126 353.961 67.679 353.961 71.231C353.961 74.783 351.741 77.336 348.189 77.336ZM379.17 62.462H375.84V64.978H375.766C374.471 63.091 372.029 62.018 369.661 62.018C364.222 62.018 360.744 66.051 360.744 71.231C360.707 76.337 364.518 80.222 369.661 80.222C372.066 80.222 374.471 79.223 375.729 77.114H375.84V79.704C375.84 82.664 374.471 85.772 369.513 85.772C366.96 85.772 364.999 84.773 363.26 82.923L361.003 85.735C363.482 88.029 366.257 88.88 369.587 88.88C375.322 88.88 379.17 85.143 379.17 79.852V62.462ZM370.068 65.126C373.62 65.126 375.84 67.679 375.84 71.231C375.84 74.783 373.62 77.114 370.068 77.114C366.516 77.114 364.296 74.783 364.296 71.231C364.296 67.679 366.516 65.126 370.068 65.126ZM400.051 72.452V71.268C400.051 66.754 397.683 62.018 391.504 62.018C386.25 62.018 382.439 65.977 382.439 71.231C382.439 76.448 385.917 80.444 391.467 80.444C394.834 80.444 397.387 79.26 399.237 76.855L396.721 74.931C395.426 76.522 393.946 77.558 391.911 77.558C388.84 77.558 385.991 75.523 385.991 72.452H400.051ZM385.991 69.788C385.991 67.457 388.137 64.682 391.43 64.682C394.797 64.682 396.425 66.865 396.499 69.788H385.991ZM422.25 62.462H417.477V57.541H414.147V62.462H410.299V65.348H414.147V74.487C414.147 77.299 414.221 80.444 419.364 80.444C420.03 80.444 421.584 80.296 422.361 79.852V76.818C421.695 77.225 420.77 77.336 419.993 77.336C417.477 77.336 417.477 75.264 417.477 73.303V65.348H422.25V62.462ZM442.382 72.452V71.268C442.382 66.754 440.014 62.018 433.835 62.018C428.581 62.018 424.77 65.977 424.77 71.231C424.77 76.448 428.248 80.444 433.798 80.444C437.165 80.444 439.718 79.26 441.568 76.855L439.052 74.931C437.757 76.522 436.277 77.558 434.242 77.558C431.171 77.558 428.322 75.523 428.322 72.452H442.382ZM428.322 69.788C428.322 67.457 430.468 64.682 433.761 64.682C437.128 64.682 438.756 66.865 438.83 69.788H428.322ZM460.685 64.83C458.946 62.943 456.504 62.055 453.951 62.055C448.475 62.055 444.775 65.903 444.775 71.305C444.775 76.707 448.549 80.444 453.951 80.444C456.504 80.444 458.872 79.667 460.611 77.743L458.243 75.375C457.133 76.67 455.838 77.336 453.988 77.336C450.547 77.336 448.327 74.672 448.327 71.379C448.327 68.086 450.177 65.163 453.803 65.163C455.653 65.163 456.948 65.829 458.169 67.124L460.685 64.83ZM462.735 80H466.065V70.972C466.065 66.902 468.174 65.126 470.949 65.126C473.058 65.126 474.945 66.347 474.945 69.64V80H478.275V68.715C478.275 64.053 475.315 62.018 471.911 62.018C469.21 62.018 466.99 63.313 466.139 65.163H466.065V52.028H462.735V80ZM482.555 80H485.885V70.972C485.885 66.902 487.994 65.126 490.769 65.126C492.878 65.126 494.765 66.347 494.765 69.64V80H498.095V68.715C498.095 64.053 495.135 62.018 491.731 62.018C489.03 62.018 486.81 63.313 485.959 65.163H485.885V62.462H482.555V80ZM505.076 71.231C505.076 67.679 507.296 65.126 510.848 65.126C514.4 65.126 516.62 67.679 516.62 71.231C516.62 74.783 514.4 77.336 510.848 77.336C507.296 77.336 505.076 74.783 505.076 71.231ZM501.524 71.231C501.524 76.337 505.631 80.444 510.848 80.444C516.065 80.444 520.172 76.337 520.172 71.231C520.172 66.125 516.065 62.018 510.848 62.018C505.631 62.018 501.524 66.125 501.524 71.231ZM523.862 80H527.192V52.028H523.862V80ZM534.453 71.231C534.453 67.679 536.673 65.126 540.225 65.126C543.777 65.126 545.997 67.679 545.997 71.231C545.997 74.783 543.777 77.336 540.225 77.336C536.673 77.336 534.453 74.783 534.453 71.231ZM530.901 71.231C530.901 76.337 535.008 80.444 540.225 80.444C545.442 80.444 549.549 76.337 549.549 71.231C549.549 66.125 545.442 62.018 540.225 62.018C535.008 62.018 530.901 66.125 530.901 71.231ZM570.556 62.462H567.226V64.978H567.152C565.857 63.091 563.415 62.018 561.047 62.018C555.608 62.018 552.13 66.051 552.13 71.231C552.093 76.337 555.904 80.222 561.047 80.222C563.452 80.222 565.857 79.223 567.115 77.114H567.226V79.704C567.226 82.664 565.857 85.772 560.899 85.772C558.346 85.772 556.385 84.773 554.646 82.923L552.389 85.735C554.868 88.029 557.643 88.88 560.973 88.88C566.708 88.88 570.556 85.143 570.556 79.852V62.462ZM561.454 65.126C565.006 65.126 567.226 67.679 567.226 71.231C567.226 74.783 565.006 77.114 561.454 77.114C557.902 77.114 555.682 74.783 555.682 71.231C555.682 67.679 557.902 65.126 561.454 65.126ZM580.04 80.111L578.967 82.886C578.301 84.625 577.672 85.772 575.563 85.772C574.897 85.772 574.194 85.624 573.565 85.365L573.158 88.399C574.083 88.769 575.119 88.88 576.118 88.88C579.781 88.88 580.928 86.808 582.112 83.774L590.437 62.462H586.848L581.89 76.152H581.816L576.599 62.462H572.751L580.04 80.111ZM604.879 71.231C604.879 67.679 607.099 65.126 610.651 65.126C614.203 65.126 616.423 67.679 616.423 71.231C616.423 74.783 614.203 77.336 610.651 77.336C607.099 77.336 604.879 74.783 604.879 71.231ZM601.327 71.231C601.327 76.337 605.434 80.444 610.651 80.444C615.868 80.444 619.975 76.337 619.975 71.231C619.975 66.125 615.868 62.018 610.651 62.018C605.434 62.018 601.327 66.125 601.327 71.231ZM623.407 80H626.737V70.972C626.737 66.902 628.846 65.126 631.621 65.126C633.73 65.126 635.617 66.347 635.617 69.64V80H638.947V68.715C638.947 64.053 635.987 62.018 632.583 62.018C629.882 62.018 627.662 63.313 626.811 65.163H626.737V62.462H623.407V80ZM662.182 62.462H657.409V57.541H654.079V62.462H650.231V65.348H654.079V74.487C654.079 77.299 654.153 80.444 659.296 80.444C659.962 80.444 661.516 80.296 662.293 79.852V76.818C661.627 77.225 660.702 77.336 659.925 77.336C657.409 77.336 657.409 75.264 657.409 73.303V65.348H662.182V62.462ZM665.738 80H669.068V70.972C669.068 66.902 671.177 65.126 673.952 65.126C676.061 65.126 677.948 66.347 677.948 69.64V80H681.278V68.715C681.278 64.053 678.318 62.018 674.914 62.018C672.213 62.018 669.993 63.313 669.142 65.163H669.068V52.028H665.738V80ZM702.134 72.452V71.268C702.134 66.754 699.766 62.018 693.587 62.018C688.333 62.018 684.522 65.977 684.522 71.231C684.522 76.448 688 80.444 693.55 80.444C696.917 80.444 699.47 79.26 701.32 76.855L698.804 74.931C697.509 76.522 696.029 77.558 693.994 77.558C690.923 77.558 688.074 75.523 688.074 72.452H702.134ZM688.074 69.788C688.074 67.457 690.22 64.682 693.513 64.682C696.88 64.682 698.508 66.865 698.582 69.788H688.074ZM714.935 80H718.265V70.898C718.265 66.939 720.411 65.126 722.816 65.126C726.035 65.126 726.516 67.494 726.516 70.824V80H729.846V70.417C729.846 67.309 731.104 65.126 734.323 65.126C737.542 65.126 738.097 67.568 738.097 70.232V80H741.427V69.788C741.427 65.866 740.169 62.018 734.767 62.018C732.658 62.018 730.364 63.128 729.217 65.274C728.107 63.128 726.331 62.018 723.741 62.018C720.596 62.018 718.45 64.164 718.117 65.2H718.043V62.462H714.935V80ZM747.775 66.68C748.996 65.755 750.217 64.682 752.77 64.682C755.619 64.682 756.951 66.569 756.951 68.382V69.122H754.509C749.181 69.122 744.852 70.676 744.852 75.19C744.852 78.594 747.664 80.444 750.92 80.444C753.584 80.444 755.582 79.593 757.062 77.336H757.136C757.136 78.224 757.173 79.112 757.247 80H760.207C760.096 79.075 760.059 78.039 760.059 76.818V67.864C760.059 64.83 757.913 62.018 752.733 62.018C750.291 62.018 747.627 62.869 745.777 64.608L747.775 66.68ZM756.951 71.564V72.674C756.951 75.042 755.656 77.78 751.956 77.78C749.662 77.78 748.182 76.929 748.182 74.931C748.182 72.119 752.03 71.564 755.175 71.564H756.951ZM764.15 80H767.48V71.194C767.48 67.346 769.256 65.57 772.512 65.57C773.03 65.57 773.585 65.681 774.14 65.829L774.288 62.24C773.844 62.092 773.326 62.018 772.808 62.018C770.625 62.018 768.405 63.313 767.554 65.163H767.48V62.462H764.15V80ZM777.104 80H780.434V70.898L788.574 80H793.31L784.43 70.454L792.607 62.499H787.982L780.434 70.084V52.028H777.104V80ZM812.126 72.452V71.268C812.126 66.754 809.758 62.018 803.579 62.018C798.325 62.018 794.514 65.977 794.514 71.231C794.514 76.448 797.992 80.444 803.542 80.444C806.909 80.444 809.462 79.26 811.312 76.855L808.796 74.931C807.501 76.522 806.021 77.558 803.986 77.558C800.915 77.558 798.066 75.523 798.066 72.452H812.126ZM798.066 69.788C798.066 67.457 800.212 64.682 803.505 64.682C806.872 64.682 808.5 66.865 808.574 69.788H798.066ZM824.768 62.462H819.995V57.541H816.665V62.462H812.817V65.348H816.665V74.487C816.665 77.299 816.739 80.444 821.882 80.444C822.548 80.444 824.102 80.296 824.879 79.852V76.818C824.213 77.225 823.288 77.336 822.511 77.336C819.995 77.336 819.995 75.264 819.995 73.303V65.348H824.768V62.462ZM830.951 80.222C832.283 80.222 833.393 79.112 833.393 77.78C833.393 76.448 832.283 75.338 830.951 75.338C829.619 75.338 828.509 76.448 828.509 77.78C828.509 79.112 829.619 80.222 830.951 80.222Z" fill="white"/>
<path d="M14.392 28.666C22.384 28.666 28.045 22.672 28.045 14.902C28.045 7.132 22.384 1.138 14.392 1.138C6.4 1.138 0.739 7.132 0.739 14.902C0.739 22.672 6.4 28.666 14.392 28.666ZM14.392 25.336C8.398 25.336 4.513 20.637 4.513 14.902C4.513 9.167 8.398 4.468 14.392 4.468C20.386 4.468 24.271 9.167 24.271 14.902C24.271 20.637 20.386 25.336 14.392 25.336ZM47.1012 10.462H43.7712V19.49C43.7712 23.56 41.6622 25.336 38.8872 25.336C36.7782 25.336 34.8912 24.115 34.8912 20.822V10.462H31.5612V21.747C31.5612 26.409 34.5212 28.444 37.9252 28.444C40.6262 28.444 42.8462 27.149 43.6972 25.299H43.7712V28H47.1012V10.462ZM51.3807 28H54.7107V19.194C54.7107 15.346 56.4867 13.57 59.7427 13.57C60.2607 13.57 60.8157 13.681 61.3707 13.829L61.5187 10.24C61.0747 10.092 60.5567 10.018 60.0387 10.018C57.8557 10.018 55.6357 11.313 54.7847 13.163H54.7107V10.462H51.3807V28ZM91.4679 10.462H88.1379V12.978H88.0639C86.7689 11.091 84.3269 10.018 81.9589 10.018C76.5199 10.018 73.0419 14.051 73.0419 19.231C73.0049 24.337 76.8159 28.222 81.9589 28.222C84.3639 28.222 86.7689 27.223 88.0269 25.114H88.1379V27.704C88.1379 30.664 86.7689 33.772 81.8109 33.772C79.2579 33.772 77.2969 32.773 75.5579 30.923L73.3009 33.735C75.7799 36.029 78.5549 36.88 81.8849 36.88C87.6199 36.88 91.4679 33.143 91.4679 27.852V10.462ZM82.3659 13.126C85.9179 13.126 88.1379 15.679 88.1379 19.231C88.1379 22.783 85.9179 25.114 82.3659 25.114C78.8139 25.114 76.5939 22.783 76.5939 19.231C76.5939 15.679 78.8139 13.126 82.3659 13.126ZM98.4731 19.231C98.4731 15.679 100.693 13.126 104.245 13.126C107.797 13.126 110.017 15.679 110.017 19.231C110.017 22.783 107.797 25.336 104.245 25.336C100.693 25.336 98.4731 22.783 98.4731 19.231ZM94.9211 19.231C94.9211 24.337 99.0281 28.444 104.245 28.444C109.462 28.444 113.569 24.337 113.569 19.231C113.569 14.125 109.462 10.018 104.245 10.018C99.0281 10.018 94.9211 14.125 94.9211 19.231ZM119.073 14.68C120.294 13.755 121.515 12.682 124.068 12.682C126.917 12.682 128.249 14.569 128.249 16.382V17.122H125.807C120.479 17.122 116.15 18.676 116.15 23.19C116.15 26.594 118.962 28.444 122.218 28.444C124.882 28.444 126.88 27.593 128.36 25.336H128.434C128.434 26.224 128.471 27.112 128.545 28H131.505C131.394 27.075 131.357 26.039 131.357 24.818V15.864C131.357 12.83 129.211 10.018 124.031 10.018C121.589 10.018 118.925 10.869 117.075 12.608L119.073 14.68ZM128.249 19.564V20.674C128.249 23.042 126.954 25.78 123.254 25.78C120.96 25.78 119.48 24.929 119.48 22.931C119.48 20.119 123.328 19.564 126.473 19.564H128.249ZM135.706 28H139.036V0.0279984H135.706V28ZM153.413 28H156.743V10.462H153.413V28ZM152.636 4.172C152.636 5.504 153.746 6.614 155.078 6.614C156.41 6.614 157.52 5.504 157.52 4.172C157.52 2.84 156.41 1.73 155.078 1.73C153.746 1.73 152.636 2.84 152.636 4.172ZM173.217 12.904C171.959 10.832 169.554 10.018 167.223 10.018C163.93 10.018 160.563 11.757 160.563 15.42C160.563 18.787 163.079 19.712 165.928 20.415C167.371 20.748 170.146 21.118 170.146 23.116C170.146 24.633 168.296 25.336 166.594 25.336C164.67 25.336 163.412 24.337 162.339 23.264L159.823 25.336C161.562 27.704 163.708 28.444 166.594 28.444C170.072 28.444 173.698 26.89 173.698 22.931C173.698 19.638 171.478 18.528 168.592 17.825C167.112 17.492 164.115 17.196 164.115 15.087C164.115 13.829 165.484 13.126 167.038 13.126C168.703 13.126 169.85 13.903 170.627 14.865L173.217 12.904ZM195.959 10.462H191.186V5.541H187.856V10.462H184.008V13.348H187.856V22.487C187.856 25.299 187.93 28.444 193.073 28.444C193.739 28.444 195.293 28.296 196.07 27.852V24.818C195.404 25.225 194.479 25.336 193.702 25.336C191.186 25.336 191.186 23.264 191.186 21.303V13.348H195.959V10.462ZM202.216 19.231C202.216 15.679 204.436 13.126 207.988 13.126C211.54 13.126 213.76 15.679 213.76 19.231C213.76 22.783 211.54 25.336 207.988 25.336C204.436 25.336 202.216 22.783 202.216 19.231ZM198.664 19.231C198.664 24.337 202.771 28.444 207.988 28.444C213.205 28.444 217.312 24.337 217.312 19.231C217.312 14.125 213.205 10.018 207.988 10.018C202.771 10.018 198.664 14.125 198.664 19.231ZM247.877 10.462H244.547V12.978H244.473C243.178 11.091 240.736 10.018 238.368 10.018C232.929 10.018 229.451 14.051 229.451 19.231C229.414 24.337 233.225 28.222 238.368 28.222C240.773 28.222 243.178 27.223 244.436 25.114H244.547V27.704C244.547 30.664 243.178 33.772 238.22 33.772C235.667 33.772 233.706 32.773 231.967 30.923L229.71 33.735C232.189 36.029 234.964 36.88 238.294 36.88C244.029 36.88 247.877 33.143 247.877 27.852V10.462ZM238.775 13.126C242.327 13.126 244.547 15.679 244.547 19.231C244.547 22.783 242.327 25.114 238.775 25.114C235.223 25.114 233.003 22.783 233.003 19.231C233.003 15.679 235.223 13.126 238.775 13.126ZM252.44 28H255.77V10.462H252.44V28ZM251.663 4.172C251.663 5.504 252.773 6.614 254.105 6.614C255.437 6.614 256.547 5.504 256.547 4.172C256.547 2.84 255.437 1.73 254.105 1.73C252.773 1.73 251.663 2.84 251.663 4.172ZM265.362 28H269.025L275.907 10.462H272.355L267.323 23.893L262.069 10.462H258.221L265.362 28ZM294.666 20.452V19.268C294.666 14.754 292.298 10.018 286.119 10.018C280.865 10.018 277.054 13.977 277.054 19.231C277.054 24.448 280.532 28.444 286.082 28.444C289.449 28.444 292.002 27.26 293.852 24.855L291.336 22.931C290.041 24.522 288.561 25.558 286.526 25.558C283.455 25.558 280.606 23.523 280.606 20.452H294.666ZM280.606 17.788C280.606 15.457 282.752 12.682 286.045 12.682C289.412 12.682 291.04 14.865 291.114 17.788H280.606ZM324.043 20.452V19.268C324.043 14.754 321.675 10.018 315.496 10.018C310.242 10.018 306.431 13.977 306.431 19.231C306.431 24.448 309.909 28.444 315.459 28.444C318.826 28.444 321.379 27.26 323.229 24.855L320.713 22.931C319.418 24.522 317.938 25.558 315.903 25.558C312.832 25.558 309.983 23.523 309.983 20.452H324.043ZM309.983 17.788C309.983 15.457 312.129 12.682 315.422 12.682C318.789 12.682 320.417 14.865 320.491 17.788H309.983ZM332.319 28H335.982L342.864 10.462H339.312L334.28 23.893L329.026 10.462H325.178L332.319 28ZM361.623 20.452V19.268C361.623 14.754 359.255 10.018 353.076 10.018C347.822 10.018 344.011 13.977 344.011 19.231C344.011 24.448 347.489 28.444 353.039 28.444C356.406 28.444 358.959 27.26 360.809 24.855L358.293 22.931C356.998 24.522 355.518 25.558 353.483 25.558C350.412 25.558 347.563 23.523 347.563 20.452H361.623ZM347.563 17.788C347.563 15.457 349.709 12.682 353.002 12.682C356.369 12.682 357.997 14.865 358.071 17.788H347.563ZM364.866 28H368.196V19.194C368.196 15.346 369.972 13.57 373.228 13.57C373.746 13.57 374.301 13.681 374.856 13.829L375.004 10.24C374.56 10.092 374.042 10.018 373.524 10.018C371.341 10.018 369.121 11.313 368.27 13.163H368.196V10.462H364.866V28ZM383 28.111L381.927 30.886C381.261 32.625 380.632 33.772 378.523 33.772C377.857 33.772 377.154 33.624 376.525 33.365L376.118 36.399C377.043 36.769 378.079 36.88 379.078 36.88C382.741 36.88 383.888 34.808 385.072 31.774L393.397 10.462H389.808L384.85 24.152H384.776L379.559 10.462H375.711L383 28.111ZM398.281 19.231C398.281 15.679 400.501 13.126 404.053 13.126C407.605 13.126 409.825 15.679 409.825 19.231C409.825 22.783 407.605 25.336 404.053 25.336C400.501 25.336 398.281 22.783 398.281 19.231ZM394.729 19.231C394.729 24.337 398.836 28.444 404.053 28.444C409.27 28.444 413.377 24.337 413.377 19.231C413.377 14.125 409.27 10.018 404.053 10.018C398.836 10.018 394.729 14.125 394.729 19.231ZM416.809 28H420.139V18.972C420.139 14.902 422.248 13.126 425.023 13.126C427.132 13.126 429.019 14.347 429.019 17.64V28H432.349V16.715C432.349 12.053 429.389 10.018 425.985 10.018C423.284 10.018 421.064 11.313 420.213 13.163H420.139V10.462H416.809V28ZM453.205 20.452V19.268C453.205 14.754 450.837 10.018 444.658 10.018C439.404 10.018 435.593 13.977 435.593 19.231C435.593 24.448 439.071 28.444 444.621 28.444C447.988 28.444 450.541 27.26 452.391 24.855L449.875 22.931C448.58 24.522 447.1 25.558 445.065 25.558C441.994 25.558 439.145 23.523 439.145 20.452H453.205ZM439.145 17.788C439.145 15.457 441.291 12.682 444.584 12.682C447.951 12.682 449.579 14.865 449.653 17.788H439.145ZM475.404 10.462H470.631V5.541H467.301V10.462H463.453V13.348H467.301V22.487C467.301 25.299 467.375 28.444 472.518 28.444C473.184 28.444 474.738 28.296 475.515 27.852V24.818C474.849 25.225 473.924 25.336 473.147 25.336C470.631 25.336 470.631 23.264 470.631 21.303V13.348H475.404V10.462ZM478.961 28H482.291V18.972C482.291 14.902 484.4 13.126 487.175 13.126C489.284 13.126 491.171 14.347 491.171 17.64V28H494.501V16.715C494.501 12.053 491.541 10.018 488.137 10.018C485.436 10.018 483.216 11.313 482.365 13.163H482.291V0.0279984H478.961V28ZM515.356 20.452V19.268C515.356 14.754 512.988 10.018 506.809 10.018C501.555 10.018 497.744 13.977 497.744 19.231C497.744 24.448 501.222 28.444 506.772 28.444C510.139 28.444 512.692 27.26 514.542 24.855L512.026 22.931C510.731 24.522 509.251 25.558 507.216 25.558C504.145 25.558 501.296 23.523 501.296 20.452H515.356ZM501.296 17.788C501.296 15.457 503.442 12.682 506.735 12.682C510.102 12.682 511.73 14.865 511.804 17.788H501.296ZM530.859 19.231C530.859 15.679 533.079 13.126 536.631 13.126C540.183 13.126 542.403 15.679 542.403 19.231C542.403 22.783 540.183 25.336 536.631 25.336C533.079 25.336 530.859 22.783 530.859 19.231ZM527.307 19.231C527.307 24.337 531.414 28.444 536.631 28.444C541.848 28.444 545.955 24.337 545.955 19.231C545.955 14.125 541.848 10.018 536.631 10.018C531.414 10.018 527.307 14.125 527.307 19.231ZM549.386 38.434H552.716V25.484H552.79C553.974 27.297 556.379 28.444 558.895 28.444C564.297 28.444 567.812 24.485 567.812 19.231C567.812 14.051 564.334 10.018 558.895 10.018C556.527 10.018 554.085 11.091 552.79 12.978H552.716V10.462H549.386V38.434ZM558.488 13.126C562.04 13.126 564.26 15.679 564.26 19.231C564.26 22.783 562.04 25.336 558.488 25.336C554.936 25.336 552.716 22.783 552.716 19.231C552.716 15.679 554.936 13.126 558.488 13.126ZM571.265 38.434H574.595V25.484H574.669C575.853 27.297 578.258 28.444 580.774 28.444C586.176 28.444 589.691 24.485 589.691 19.231C589.691 14.051 586.213 10.018 580.774 10.018C578.406 10.018 575.964 11.091 574.669 12.978H574.595V10.462H571.265V38.434ZM580.367 13.126C583.919 13.126 586.139 15.679 586.139 19.231C586.139 22.783 583.919 25.336 580.367 25.336C576.815 25.336 574.595 22.783 574.595 19.231C574.595 15.679 576.815 13.126 580.367 13.126ZM595.846 19.231C595.846 15.679 598.066 13.126 601.618 13.126C605.17 13.126 607.39 15.679 607.39 19.231C607.39 22.783 605.17 25.336 601.618 25.336C598.066 25.336 595.846 22.783 595.846 19.231ZM592.294 19.231C592.294 24.337 596.401 28.444 601.618 28.444C606.835 28.444 610.942 24.337 610.942 19.231C610.942 14.125 606.835 10.018 601.618 10.018C596.401 10.018 592.294 14.125 592.294 19.231ZM614.373 28H617.703V19.194C617.703 15.346 619.479 13.57 622.735 13.57C623.253 13.57 623.808 13.681 624.363 13.829L624.511 10.24C624.067 10.092 623.549 10.018 623.031 10.018C620.848 10.018 618.628 11.313 617.777 13.163H617.703V10.462H614.373V28ZM636.726 10.462H631.953V5.541H628.623V10.462H624.775V13.348H628.623V22.487C628.623 25.299 628.697 28.444 633.84 28.444C634.506 28.444 636.06 28.296 636.837 27.852V24.818C636.171 25.225 635.246 25.336 634.469 25.336C631.953 25.336 631.953 23.264 631.953 21.303V13.348H636.726V10.462ZM655.822 10.462H652.492V19.49C652.492 23.56 650.383 25.336 647.608 25.336C645.499 25.336 643.612 24.115 643.612 20.822V10.462H640.282V21.747C640.282 26.409 643.242 28.444 646.646 28.444C649.347 28.444 651.567 27.149 652.418 25.299H652.492V28H655.822V10.462ZM660.102 28H663.432V18.972C663.432 14.902 665.541 13.126 668.316 13.126C670.425 13.126 672.312 14.347 672.312 17.64V28H675.642V16.715C675.642 12.053 672.682 10.018 669.278 10.018C666.577 10.018 664.357 11.313 663.506 13.163H663.432V10.462H660.102V28ZM680.18 28H683.51V10.462H680.18V28ZM679.403 4.172C679.403 5.504 680.513 6.614 681.845 6.614C683.177 6.614 684.287 5.504 684.287 4.172C684.287 2.84 683.177 1.73 681.845 1.73C680.513 1.73 679.403 2.84 679.403 4.172ZM697.468 10.462H692.695V5.541H689.365V10.462H685.517V13.348H689.365V22.487C689.365 25.299 689.439 28.444 694.582 28.444C695.248 28.444 696.802 28.296 697.579 27.852V24.818C696.913 25.225 695.988 25.336 695.211 25.336C692.695 25.336 692.695 23.264 692.695 21.303V13.348H697.468V10.462ZM706.204 28.111L705.131 30.886C704.465 32.625 703.836 33.772 701.727 33.772C701.061 33.772 700.358 33.624 699.729 33.365L699.322 36.399C700.247 36.769 701.283 36.88 702.282 36.88C705.945 36.88 707.092 34.808 708.276 31.774L716.601 10.462H713.012L708.054 24.152H707.98L702.763 10.462H698.915L706.204 28.111ZM737.74 10.462H732.967V5.541H729.637V10.462H725.789V13.348H729.637V22.487C729.637 25.299 729.711 28.444 734.854 28.444C735.52 28.444 737.074 28.296 737.851 27.852V24.818C737.185 25.225 736.26 25.336 735.483 25.336C732.967 25.336 732.967 23.264 732.967 21.303V13.348H737.74V10.462ZM743.997 19.231C743.997 15.679 746.217 13.126 749.769 13.126C753.321 13.126 755.541 15.679 755.541 19.231C755.541 22.783 753.321 25.336 749.769 25.336C746.217 25.336 743.997 22.783 743.997 19.231ZM740.445 19.231C740.445 24.337 744.552 28.444 749.769 28.444C754.986 28.444 759.093 24.337 759.093 19.231C759.093 14.125 754.986 10.018 749.769 10.018C744.552 10.018 740.445 14.125 740.445 19.231ZM781.481 10.462H776.708V5.541H773.378V10.462H769.53V13.348H773.378V22.487C773.378 25.299 773.452 28.444 778.595 28.444C779.261 28.444 780.815 28.296 781.592 27.852V24.818C780.926 25.225 780.001 25.336 779.224 25.336C776.708 25.336 776.708 23.264 776.708 21.303V13.348H781.481V10.462ZM787.109 14.68C788.33 13.755 789.551 12.682 792.104 12.682C794.953 12.682 796.285 14.569 796.285 16.382V17.122H793.843C788.515 17.122 784.186 18.676 784.186 23.19C784.186 26.594 786.998 28.444 790.254 28.444C792.918 28.444 794.916 27.593 796.396 25.336H796.47C796.47 26.224 796.507 27.112 796.581 28H799.541C799.43 27.075 799.393 26.039 799.393 24.818V15.864C799.393 12.83 797.247 10.018 792.067 10.018C789.625 10.018 786.961 10.869 785.111 12.608L787.109 14.68ZM796.285 19.564V20.674C796.285 23.042 794.99 25.78 791.29 25.78C788.996 25.78 787.516 24.929 787.516 22.931C787.516 20.119 791.364 19.564 794.509 19.564H796.285ZM803.484 28H806.814V18.898L814.954 28H819.69L810.81 18.454L818.987 10.499H814.362L806.814 18.084V0.0279984H803.484V28ZM838.506 20.452V19.268C838.506 14.754 836.138 10.018 829.959 10.018C824.705 10.018 820.894 13.977 820.894 19.231C820.894 24.448 824.372 28.444 829.922 28.444C833.289 28.444 835.842 27.26 837.692 24.855L835.176 22.931C833.881 24.522 832.401 25.558 830.366 25.558C827.295 25.558 824.446 23.523 824.446 20.452H838.506ZM824.446 17.788C824.446 15.457 826.592 12.682 829.885 12.682C833.252 12.682 834.88 14.865 834.954 17.788H824.446ZM853.38 14.68C854.601 13.755 855.822 12.682 858.375 12.682C861.224 12.682 862.556 14.569 862.556 16.382V17.122H860.114C854.786 17.122 850.457 18.676 850.457 23.19C850.457 26.594 853.269 28.444 856.525 28.444C859.189 28.444 861.187 27.593 862.667 25.336H862.741C862.741 26.224 862.778 27.112 862.852 28H865.812C865.701 27.075 865.664 26.039 865.664 24.818V15.864C865.664 12.83 863.518 10.018 858.338 10.018C855.896 10.018 853.232 10.869 851.382 12.608L853.38 14.68ZM862.556 19.564V20.674C862.556 23.042 861.261 25.78 857.561 25.78C855.267 25.78 853.787 24.929 853.787 22.931C853.787 20.119 857.635 19.564 860.78 19.564H862.556ZM887.329 0.0279984H883.999V12.978H883.925C882.741 11.165 880.336 10.018 877.82 10.018C872.418 10.018 868.903 13.977 868.903 19.231C868.903 24.411 872.381 28.444 877.82 28.444C880.188 28.444 882.63 27.371 883.925 25.484H883.999V28H887.329V0.0279984ZM878.227 25.336C874.675 25.336 872.455 22.783 872.455 19.231C872.455 15.679 874.675 13.126 878.227 13.126C881.779 13.126 883.999 15.679 883.999 19.231C883.999 22.783 881.779 25.336 878.227 25.336ZM896.665 28H900.328L907.21 10.462H903.658L898.626 23.893L893.372 10.462H889.524L896.665 28ZM911.465 14.68C912.686 13.755 913.907 12.682 916.46 12.682C919.309 12.682 920.641 14.569 920.641 16.382V17.122H918.199C912.871 17.122 908.542 18.676 908.542 23.19C908.542 26.594 911.354 28.444 914.61 28.444C917.274 28.444 919.272 27.593 920.752 25.336H920.826C920.826 26.224 920.863 27.112 920.937 28H923.897C923.786 27.075 923.749 26.039 923.749 24.818V15.864C923.749 12.83 921.603 10.018 916.423 10.018C913.981 10.018 911.317 10.869 909.467 12.608L911.465 14.68ZM920.641 19.564V20.674C920.641 23.042 919.346 25.78 915.646 25.78C913.352 25.78 911.872 24.929 911.872 22.931C911.872 20.119 915.72 19.564 918.865 19.564H920.641ZM927.84 28H931.17V18.972C931.17 14.902 933.279 13.126 936.054 13.126C938.163 13.126 940.05 14.347 940.05 17.64V28H943.38V16.715C943.38 12.053 940.42 10.018 937.016 10.018C934.315 10.018 932.095 11.313 931.244 13.163H931.17V10.462H927.84V28ZM957.057 10.462H952.284V5.541H948.954V10.462H945.106V13.348H948.954V22.487C948.954 25.299 949.028 28.444 954.171 28.444C954.837 28.444 956.391 28.296 957.168 27.852V24.818C956.502 25.225 955.577 25.336 954.8 25.336C952.284 25.336 952.284 23.264 952.284 21.303V13.348H957.057V10.462ZM962.686 14.68C963.907 13.755 965.128 12.682 967.681 12.682C970.53 12.682 971.862 14.569 971.862 16.382V17.122H969.42C964.092 17.122 959.763 18.676 959.763 23.19C959.763 26.594 962.575 28.444 965.831 28.444C968.495 28.444 970.493 27.593 971.973 25.336H972.047C972.047 26.224 972.084 27.112 972.158 28H975.118C975.007 27.075 974.97 26.039 974.97 24.818V15.864C974.97 12.83 972.824 10.018 967.644 10.018C965.202 10.018 962.538 10.869 960.688 12.608L962.686 14.68ZM971.862 19.564V20.674C971.862 23.042 970.567 25.78 966.867 25.78C964.573 25.78 963.093 24.929 963.093 22.931C963.093 20.119 966.941 19.564 970.086 19.564H971.862ZM996.635 10.462H993.305V12.978H993.231C991.936 11.091 989.494 10.018 987.126 10.018C981.687 10.018 978.209 14.051 978.209 19.231C978.172 24.337 981.983 28.222 987.126 28.222C989.531 28.222 991.936 27.223 993.194 25.114H993.305V27.704C993.305 30.664 991.936 33.772 986.978 33.772C984.425 33.772 982.464 32.773 980.725 30.923L978.468 33.735C980.947 36.029 983.722 36.88 987.052 36.88C992.787 36.88 996.635 33.143 996.635 27.852V10.462ZM987.533 13.126C991.085 13.126 993.305 15.679 993.305 19.231C993.305 22.783 991.085 25.114 987.533 25.114C983.981 25.114 981.761 22.783 981.761 19.231C981.761 15.679 983.981 13.126 987.533 13.126ZM1017.52 20.452V19.268C1017.52 14.754 1015.15 10.018 1008.97 10.018C1003.71 10.018 999.903 13.977 999.903 19.231C999.903 24.448 1003.38 28.444 1008.93 28.444C1012.3 28.444 1014.85 27.26 1016.7 24.855L1014.19 22.931C1012.89 24.522 1011.41 25.558 1009.38 25.558C1006.3 25.558 1003.46 23.523 1003.46 20.452H1017.52ZM1003.46 17.788C1003.46 15.457 1005.6 12.682 1008.89 12.682C1012.26 12.682 1013.89 14.865 1013.96 17.788H1003.46ZM4.217 71.231C4.217 67.679 6.437 65.126 9.989 65.126C13.541 65.126 15.761 67.679 15.761 71.231C15.761 74.783 13.541 77.336 9.989 77.336C6.437 77.336 4.217 74.783 4.217 71.231ZM0.665 71.231C0.665 76.337 4.772 80.444 9.989 80.444C15.206 80.444 19.313 76.337 19.313 71.231C19.313 66.125 15.206 62.018 9.989 62.018C4.772 62.018 0.665 66.125 0.665 71.231ZM24.0398 80H27.3698V65.348H31.3658V62.462H27.4068V58.429C27.4068 55.987 27.8138 54.47 30.2558 54.47C30.9218 54.47 31.5138 54.544 32.1428 54.803L32.5128 51.843C31.5878 51.621 30.7738 51.584 30.0338 51.584C25.6678 51.584 24.0398 53.878 24.0398 58.54V62.462H20.2658V65.348H24.0398V80ZM53.2819 62.462H48.5089V57.541H45.1789V62.462H41.3309V65.348H45.1789V74.487C45.1789 77.299 45.2529 80.444 50.3959 80.444C51.0619 80.444 52.6159 80.296 53.3929 79.852V76.818C52.7269 77.225 51.8019 77.336 51.0249 77.336C48.5089 77.336 48.5089 75.264 48.5089 73.303V65.348H53.2819V62.462ZM56.8382 80H60.1682V70.972C60.1682 66.902 62.2772 65.126 65.0522 65.126C67.1612 65.126 69.0482 66.347 69.0482 69.64V80H72.3782V68.715C72.3782 64.053 69.4182 62.018 66.0142 62.018C63.3132 62.018 61.0932 63.313 60.2422 65.163H60.1682V52.028H56.8382V80ZM93.2338 72.452V71.268C93.2338 66.754 90.8658 62.018 84.6868 62.018C79.4328 62.018 75.6218 65.977 75.6218 71.231C75.6218 76.448 79.0998 80.444 84.6498 80.444C88.0168 80.444 90.5698 79.26 92.4198 76.855L89.9038 74.931C88.6088 76.522 87.1288 77.558 85.0938 77.558C82.0228 77.558 79.1738 75.523 79.1738 72.452H93.2338ZM79.1738 69.788C79.1738 67.457 81.3198 64.682 84.6128 64.682C87.9798 64.682 89.6078 66.865 89.6818 69.788H79.1738ZM106.035 80H109.365V70.898C109.365 66.939 111.511 65.126 113.916 65.126C117.135 65.126 117.616 67.494 117.616 70.824V80H120.946V70.417C120.946 67.309 122.204 65.126 125.423 65.126C128.642 65.126 129.197 67.568 129.197 70.232V80H132.527V69.788C132.527 65.866 131.269 62.018 125.867 62.018C123.758 62.018 121.464 63.128 120.317 65.274C119.207 63.128 117.431 62.018 114.841 62.018C111.696 62.018 109.55 64.164 109.217 65.2H109.143V62.462H106.035V80ZM139.504 71.231C139.504 67.679 141.724 65.126 145.276 65.126C148.828 65.126 151.048 67.679 151.048 71.231C151.048 74.783 148.828 77.336 145.276 77.336C141.724 77.336 139.504 74.783 139.504 71.231ZM135.952 71.231C135.952 76.337 140.059 80.444 145.276 80.444C150.493 80.444 154.6 76.337 154.6 71.231C154.6 66.125 150.493 62.018 145.276 62.018C140.059 62.018 135.952 66.125 135.952 71.231ZM169.946 64.904C168.688 62.832 166.283 62.018 163.952 62.018C160.659 62.018 157.292 63.757 157.292 67.42C157.292 70.787 159.808 71.712 162.657 72.415C164.1 72.748 166.875 73.118 166.875 75.116C166.875 76.633 165.025 77.336 163.323 77.336C161.399 77.336 160.141 76.337 159.068 75.264L156.552 77.336C158.291 79.704 160.437 80.444 163.323 80.444C166.801 80.444 170.427 78.89 170.427 74.931C170.427 71.638 168.207 70.528 165.321 69.825C163.841 69.492 160.844 69.196 160.844 67.087C160.844 65.829 162.213 65.126 163.767 65.126C165.432 65.126 166.579 65.903 167.356 66.865L169.946 64.904ZM183.13 62.462H178.357V57.541H175.027V62.462H171.179V65.348H175.027V74.487C175.027 77.299 175.101 80.444 180.244 80.444C180.91 80.444 182.464 80.296 183.241 79.852V76.818C182.575 77.225 181.65 77.336 180.873 77.336C178.357 77.336 178.357 75.264 178.357 73.303V65.348H183.13V62.462ZM211.303 64.83C209.564 62.943 207.122 62.055 204.569 62.055C199.093 62.055 195.393 65.903 195.393 71.305C195.393 76.707 199.167 80.444 204.569 80.444C207.122 80.444 209.49 79.667 211.229 77.743L208.861 75.375C207.751 76.67 206.456 77.336 204.606 77.336C201.165 77.336 198.945 74.672 198.945 71.379C198.945 68.086 200.795 65.163 204.421 65.163C206.271 65.163 207.566 65.829 208.787 67.124L211.303 64.83ZM228.894 62.462H225.564V71.49C225.564 75.56 223.455 77.336 220.68 77.336C218.571 77.336 216.684 76.115 216.684 72.822V62.462H213.354V73.747C213.354 78.409 216.314 80.444 219.718 80.444C222.419 80.444 224.639 79.149 225.49 77.299H225.564V80H228.894V62.462ZM242.572 62.462H237.799V57.541H234.469V62.462H230.621V65.348H234.469V74.487C234.469 77.299 234.543 80.444 239.686 80.444C240.352 80.444 241.906 80.296 242.683 79.852V76.818C242.017 77.225 241.092 77.336 240.315 77.336C237.799 77.336 237.799 75.264 237.799 73.303V65.348H242.572V62.462ZM255.526 62.462H250.753V57.541H247.423V62.462H243.575V65.348H247.423V74.487C247.423 77.299 247.497 80.444 252.64 80.444C253.306 80.444 254.86 80.296 255.637 79.852V76.818C254.971 77.225 254.046 77.336 253.269 77.336C250.753 77.336 250.753 75.264 250.753 73.303V65.348H255.526V62.462ZM259.341 80H262.671V62.462H259.341V80ZM258.564 56.172C258.564 57.504 259.674 58.614 261.006 58.614C262.338 58.614 263.448 57.504 263.448 56.172C263.448 54.84 262.338 53.73 261.006 53.73C259.674 53.73 258.564 54.84 258.564 56.172ZM267.231 80H270.561V70.972C270.561 66.902 272.67 65.126 275.445 65.126C277.554 65.126 279.441 66.347 279.441 69.64V80H282.771V68.715C282.771 64.053 279.811 62.018 276.407 62.018C273.706 62.018 271.486 63.313 270.635 65.163H270.561V62.462H267.231V80ZM304.625 62.462H301.295V64.978H301.221C299.926 63.091 297.484 62.018 295.116 62.018C289.677 62.018 286.199 66.051 286.199 71.231C286.162 76.337 289.973 80.222 295.116 80.222C297.521 80.222 299.926 79.223 301.184 77.114H301.295V79.704C301.295 82.664 299.926 85.772 294.968 85.772C292.415 85.772 290.454 84.773 288.715 82.923L286.458 85.735C288.937 88.029 291.712 88.88 295.042 88.88C300.777 88.88 304.625 85.143 304.625 79.852V62.462ZM295.523 65.126C299.075 65.126 301.295 67.679 301.295 71.231C301.295 74.783 299.075 77.114 295.523 77.114C291.971 77.114 289.751 74.783 289.751 71.231C289.751 67.679 291.971 65.126 295.523 65.126ZM316.811 69.492H307.709V72.6H316.811V69.492ZM336.473 72.452V71.268C336.473 66.754 334.105 62.018 327.926 62.018C322.672 62.018 318.861 65.977 318.861 71.231C318.861 76.448 322.339 80.444 327.889 80.444C331.256 80.444 333.809 79.26 335.659 76.855L333.143 74.931C331.848 76.522 330.368 77.558 328.333 77.558C325.262 77.558 322.413 75.523 322.413 72.452H336.473ZM322.413 69.788C322.413 67.457 324.559 64.682 327.852 64.682C331.219 64.682 332.847 66.865 332.921 69.788H322.413ZM357.291 52.028H353.961V64.978H353.887C352.703 63.165 350.298 62.018 347.782 62.018C342.38 62.018 338.865 65.977 338.865 71.231C338.865 76.411 342.343 80.444 347.782 80.444C350.15 80.444 352.592 79.371 353.887 77.484H353.961V80H357.291V52.028ZM348.189 77.336C344.637 77.336 342.417 74.783 342.417 71.231C342.417 67.679 344.637 65.126 348.189 65.126C351.741 65.126 353.961 67.679 353.961 71.231C353.961 74.783 351.741 77.336 348.189 77.336ZM379.17 62.462H375.84V64.978H375.766C374.471 63.091 372.029 62.018 369.661 62.018C364.222 62.018 360.744 66.051 360.744 71.231C360.707 76.337 364.518 80.222 369.661 80.222C372.066 80.222 374.471 79.223 375.729 77.114H375.84V79.704C375.84 82.664 374.471 85.772 369.513 85.772C366.96 85.772 364.999 84.773 363.26 82.923L361.003 85.735C363.482 88.029 366.257 88.88 369.587 88.88C375.322 88.88 379.17 85.143 379.17 79.852V62.462ZM370.068 65.126C373.62 65.126 375.84 67.679 375.84 71.231C375.84 74.783 373.62 77.114 370.068 77.114C366.516 77.114 364.296 74.783 364.296 71.231C364.296 67.679 366.516 65.126 370.068 65.126ZM400.051 72.452V71.268C400.051 66.754 397.683 62.018 391.504 62.018C386.25 62.018 382.439 65.977 382.439 71.231C382.439 76.448 385.917 80.444 391.467 80.444C394.834 80.444 397.387 79.26 399.237 76.855L396.721 74.931C395.426 76.522 393.946 77.558 391.911 77.558C388.84 77.558 385.991 75.523 385.991 72.452H400.051ZM385.991 69.788C385.991 67.457 388.137 64.682 391.43 64.682C394.797 64.682 396.425 66.865 396.499 69.788H385.991ZM422.25 62.462H417.477V57.541H414.147V62.462H410.299V65.348H414.147V74.487C414.147 77.299 414.221 80.444 419.364 80.444C420.03 80.444 421.584 80.296 422.361 79.852V76.818C421.695 77.225 420.77 77.336 419.993 77.336C417.477 77.336 417.477 75.264 417.477 73.303V65.348H422.25V62.462ZM442.382 72.452V71.268C442.382 66.754 440.014 62.018 433.835 62.018C428.581 62.018 424.77 65.977 424.77 71.231C424.77 76.448 428.248 80.444 433.798 80.444C437.165 80.444 439.718 79.26 441.568 76.855L439.052 74.931C437.757 76.522 436.277 77.558 434.242 77.558C431.171 77.558 428.322 75.523 428.322 72.452H442.382ZM428.322 69.788C428.322 67.457 430.468 64.682 433.761 64.682C437.128 64.682 438.756 66.865 438.83 69.788H428.322ZM460.685 64.83C458.946 62.943 456.504 62.055 453.951 62.055C448.475 62.055 444.775 65.903 444.775 71.305C444.775 76.707 448.549 80.444 453.951 80.444C456.504 80.444 458.872 79.667 460.611 77.743L458.243 75.375C457.133 76.67 455.838 77.336 453.988 77.336C450.547 77.336 448.327 74.672 448.327 71.379C448.327 68.086 450.177 65.163 453.803 65.163C455.653 65.163 456.948 65.829 458.169 67.124L460.685 64.83ZM462.735 80H466.065V70.972C466.065 66.902 468.174 65.126 470.949 65.126C473.058 65.126 474.945 66.347 474.945 69.64V80H478.275V68.715C478.275 64.053 475.315 62.018 471.911 62.018C469.21 62.018 466.99 63.313 466.139 65.163H466.065V52.028H462.735V80ZM482.555 80H485.885V70.972C485.885 66.902 487.994 65.126 490.769 65.126C492.878 65.126 494.765 66.347 494.765 69.64V80H498.095V68.715C498.095 64.053 495.135 62.018 491.731 62.018C489.03 62.018 486.81 63.313 485.959 65.163H485.885V62.462H482.555V80ZM505.076 71.231C505.076 67.679 507.296 65.126 510.848 65.126C514.4 65.126 516.62 67.679 516.62 71.231C516.62 74.783 514.4 77.336 510.848 77.336C507.296 77.336 505.076 74.783 505.076 71.231ZM501.524 71.231C501.524 76.337 505.631 80.444 510.848 80.444C516.065 80.444 520.172 76.337 520.172 71.231C520.172 66.125 516.065 62.018 510.848 62.018C505.631 62.018 501.524 66.125 501.524 71.231ZM523.862 80H527.192V52.028H523.862V80ZM534.453 71.231C534.453 67.679 536.673 65.126 540.225 65.126C543.777 65.126 545.997 67.679 545.997 71.231C545.997 74.783 543.777 77.336 540.225 77.336C536.673 77.336 534.453 74.783 534.453 71.231ZM530.901 71.231C530.901 76.337 535.008 80.444 540.225 80.444C545.442 80.444 549.549 76.337 549.549 71.231C549.549 66.125 545.442 62.018 540.225 62.018C535.008 62.018 530.901 66.125 530.901 71.231ZM570.556 62.462H567.226V64.978H567.152C565.857 63.091 563.415 62.018 561.047 62.018C555.608 62.018 552.13 66.051 552.13 71.231C552.093 76.337 555.904 80.222 561.047 80.222C563.452 80.222 565.857 79.223 567.115 77.114H567.226V79.704C567.226 82.664 565.857 85.772 560.899 85.772C558.346 85.772 556.385 84.773 554.646 82.923L552.389 85.735C554.868 88.029 557.643 88.88 560.973 88.88C566.708 88.88 570.556 85.143 570.556 79.852V62.462ZM561.454 65.126C565.006 65.126 567.226 67.679 567.226 71.231C567.226 74.783 565.006 77.114 561.454 77.114C557.902 77.114 555.682 74.783 555.682 71.231C555.682 67.679 557.902 65.126 561.454 65.126ZM580.04 80.111L578.967 82.886C578.301 84.625 577.672 85.772 575.563 85.772C574.897 85.772 574.194 85.624 573.565 85.365L573.158 88.399C574.083 88.769 575.119 88.88 576.118 88.88C579.781 88.88 580.928 86.808 582.112 83.774L590.437 62.462H586.848L581.89 76.152H581.816L576.599 62.462H572.751L580.04 80.111ZM604.879 71.231C604.879 67.679 607.099 65.126 610.651 65.126C614.203 65.126 616.423 67.679 616.423 71.231C616.423 74.783 614.203 77.336 610.651 77.336C607.099 77.336 604.879 74.783 604.879 71.231ZM601.327 71.231C601.327 76.337 605.434 80.444 610.651 80.444C615.868 80.444 619.975 76.337 619.975 71.231C619.975 66.125 615.868 62.018 610.651 62.018C605.434 62.018 601.327 66.125 601.327 71.231ZM623.407 80H626.737V70.972C626.737 66.902 628.846 65.126 631.621 65.126C633.73 65.126 635.617 66.347 635.617 69.64V80H638.947V68.715C638.947 64.053 635.987 62.018 632.583 62.018C629.882 62.018 627.662 63.313 626.811 65.163H626.737V62.462H623.407V80ZM662.182 62.462H657.409V57.541H654.079V62.462H650.231V65.348H654.079V74.487C654.079 77.299 654.153 80.444 659.296 80.444C659.962 80.444 661.516 80.296 662.293 79.852V76.818C661.627 77.225 660.702 77.336 659.925 77.336C657.409 77.336 657.409 75.264 657.409 73.303V65.348H662.182V62.462ZM665.738 80H669.068V70.972C669.068 66.902 671.177 65.126 673.952 65.126C676.061 65.126 677.948 66.347 677.948 69.64V80H681.278V68.715C681.278 64.053 678.318 62.018 674.914 62.018C672.213 62.018 669.993 63.313 669.142 65.163H669.068V52.028H665.738V80ZM702.134 72.452V71.268C702.134 66.754 699.766 62.018 693.587 62.018C688.333 62.018 684.522 65.977 684.522 71.231C684.522 76.448 688 80.444 693.55 80.444C696.917 80.444 699.47 79.26 701.32 76.855L698.804 74.931C697.509 76.522 696.029 77.558 693.994 77.558C690.923 77.558 688.074 75.523 688.074 72.452H702.134ZM688.074 69.788C688.074 67.457 690.22 64.682 693.513 64.682C696.88 64.682 698.508 66.865 698.582 69.788H688.074ZM714.935 80H718.265V70.898C718.265 66.939 720.411 65.126 722.816 65.126C726.035 65.126 726.516 67.494 726.516 70.824V80H729.846V70.417C729.846 67.309 731.104 65.126 734.323 65.126C737.542 65.126 738.097 67.568 738.097 70.232V80H741.427V69.788C741.427 65.866 740.169 62.018 734.767 62.018C732.658 62.018 730.364 63.128 729.217 65.274C728.107 63.128 726.331 62.018 723.741 62.018C720.596 62.018 718.45 64.164 718.117 65.2H718.043V62.462H714.935V80ZM747.775 66.68C748.996 65.755 750.217 64.682 752.77 64.682C755.619 64.682 756.951 66.569 756.951 68.382V69.122H754.509C749.181 69.122 744.852 70.676 744.852 75.19C744.852 78.594 747.664 80.444 750.92 80.444C753.584 80.444 755.582 79.593 757.062 77.336H757.136C757.136 78.224 757.173 79.112 757.247 80H760.207C760.096 79.075 760.059 78.039 760.059 76.818V67.864C760.059 64.83 757.913 62.018 752.733 62.018C750.291 62.018 747.627 62.869 745.777 64.608L747.775 66.68ZM756.951 71.564V72.674C756.951 75.042 755.656 77.78 751.956 77.78C749.662 77.78 748.182 76.929 748.182 74.931C748.182 72.119 752.03 71.564 755.175 71.564H756.951ZM764.15 80H767.48V71.194C767.48 67.346 769.256 65.57 772.512 65.57C773.03 65.57 773.585 65.681 774.14 65.829L774.288 62.24C773.844 62.092 773.326 62.018 772.808 62.018C770.625 62.018 768.405 63.313 767.554 65.163H767.48V62.462H764.15V80ZM777.104 80H780.434V70.898L788.574 80H793.31L784.43 70.454L792.607 62.499H787.982L780.434 70.084V52.028H777.104V80ZM812.126 72.452V71.268C812.126 66.754 809.758 62.018 803.579 62.018C798.325 62.018 794.514 65.977 794.514 71.231C794.514 76.448 797.992 80.444 803.542 80.444C806.909 80.444 809.462 79.26 811.312 76.855L808.796 74.931C807.501 76.522 806.021 77.558 803.986 77.558C800.915 77.558 798.066 75.523 798.066 72.452H812.126ZM798.066 69.788C798.066 67.457 800.212 64.682 803.505 64.682C806.872 64.682 808.5 66.865 808.574 69.788H798.066ZM824.768 62.462H819.995V57.541H816.665V62.462H812.817V65.348H816.665V74.487C816.665 77.299 816.739 80.444 821.882 80.444C822.548 80.444 824.102 80.296 824.879 79.852V76.818C824.213 77.225 823.288 77.336 822.511 77.336C819.995 77.336 819.995 75.264 819.995 73.303V65.348H824.768V62.462ZM830.951 80.222C832.283 80.222 833.393 79.112 833.393 77.78C833.393 76.448 832.283 75.338 830.951 75.338C829.619 75.338 828.509 76.448 828.509 77.78C828.509 79.112 829.619 80.222 830.951 80.222Z" fill="url(#paint0_linear_13447_42842)" fill-opacity="0.9"/>
<defs>
<linearGradient id="paint0_linear_13447_42842" x1="24.5" y1="14.9999" x2="1028.5" y2="44.9999" gradientUnits="userSpaceOnUse">
<stop stop-color="white"/>
<stop offset="0.307292" stop-color="#5F46FF"/>
<stop offset="0.682292" stop-color="white" stop-opacity="0.651693"/>
<stop offset="1" stop-color="white"/>
</linearGradient>
</defs>
</svg>
