<svg width="38" height="38" viewBox="0 0 38 38" fill="none" xmlns="http://www.w3.org/2000/svg">
<path fill-rule="evenodd" clip-rule="evenodd" d="M3.03495 24.0641C3.6362 23.2242 3.81481 22.1631 3.67157 21.1392C3.47507 19.7195 3.47507 18.2795 3.67157 16.8598C3.81481 15.8359 3.6362 14.7766 3.03495 13.9349L1.95093 12.4176L1.92264 12.3787C1.45048 11.7191 1.05613 11.1656 0.762583 10.681C0.456654 10.1753 0.212617 9.66776 0.0959045 9.08773C-0.0853075 8.18883 -0.00867782 7.25701 0.316952 6.3998C0.529157 5.84452 0.852771 5.38475 1.23828 4.93558C1.6061 4.50763 2.0871 4.02663 2.66005 3.45368L2.69542 3.41831L3.41869 2.69504L3.45406 2.65967C4.02524 2.08849 4.50801 1.60572 4.93419 1.2379C5.38336 0.852391 5.8449 0.528778 6.39841 0.318341C7.25546 -0.00788042 8.18728 -0.0851236 9.08634 0.0955251C9.66814 0.212238 10.1757 0.456274 10.6814 0.763972C11.1642 1.05575 11.7195 1.45187 12.3791 1.92226L12.418 1.95055L13.9352 3.03457C14.777 3.63582 15.8362 3.81443 16.8601 3.67296C18.2799 3.47651 19.7199 3.47651 21.1396 3.67296C22.1653 3.81443 23.2228 3.63582 24.0645 3.03457L25.5818 1.95055L25.6225 1.92226C26.2803 1.45187 26.8356 1.05575 27.3183 0.763972C27.8241 0.456274 28.3316 0.212238 28.9116 0.0955251C29.8113 -0.0854649 30.7437 -0.00821763 31.6013 0.318341C32.1548 0.528778 32.6164 0.852391 33.0638 1.2379C33.4917 1.60572 33.9745 2.08672 34.5457 2.65967L34.5811 2.69504L35.3061 3.42008L35.3397 3.45368C35.9126 4.02663 36.3936 4.50763 36.7615 4.93558C37.147 5.38475 37.4706 5.84452 37.681 6.39803C38.0072 7.25508 38.0845 8.1869 37.9038 9.08596C37.7871 9.66953 37.5431 10.1753 37.2372 10.6828C36.9436 11.1656 36.5475 11.7191 36.0771 12.3787L36.0488 12.4176L34.9648 13.9349C34.3635 14.7766 34.1849 15.8359 34.3264 16.8598C34.5229 18.2795 34.5229 19.7195 34.3264 21.1392C34.1849 22.1649 34.3635 23.2224 34.9648 24.0641L36.0488 25.5814L36.0771 25.6221C36.5493 26.2817 36.9436 26.8352 37.2372 27.3179C37.5431 27.8237 37.7871 28.3312 37.9038 28.9113C38.0848 29.8109 38.0076 30.7434 37.681 31.601C37.4706 32.1545 37.147 32.616 36.7615 33.0652C36.3936 33.4931 35.9126 33.9741 35.3379 34.5471L35.3043 34.5824L34.5811 35.3039L34.5457 35.3393C33.9745 35.9123 33.4917 36.3933 33.0638 36.7611C32.6164 37.1466 32.1548 37.472 31.6013 37.6806C30.7445 38.0075 29.8126 38.0853 28.9134 37.9052C28.3298 37.7885 27.8241 37.5427 27.3166 37.2368C26.8356 36.945 26.2803 36.5471 25.6225 36.0785L25.5818 36.0484L24.0645 34.9662C23.2228 34.3649 22.1635 34.1846 21.1396 34.326C19.7199 34.5225 18.2799 34.5225 16.8601 34.326C15.8345 34.1846 14.777 34.3649 13.9352 34.9662L12.418 36.0502L12.3773 36.0767C11.7195 36.5489 11.1642 36.9432 10.6814 37.2368C10.1757 37.5427 9.66814 37.7885 9.08811 37.9052C8.18848 38.0862 7.25599 38.009 6.39841 37.6824C5.8449 37.4702 5.38336 37.1466 4.93596 36.7611C4.4249 36.3047 3.93004 35.8305 3.45229 35.3393L3.41692 35.3039L2.69542 34.5807L2.66005 34.5471C2.16892 34.0699 1.69471 33.5756 1.23828 33.0652C0.852771 32.616 0.529157 32.1545 0.31872 31.601C-0.00750107 30.7439 -0.0847443 29.8121 0.0959045 28.913C0.212617 28.3312 0.456654 27.8237 0.762583 27.3179C1.05613 26.8352 1.45225 26.2817 1.92264 25.6203L1.95093 25.5814L3.03495 24.0659V24.0641ZM18.9999 24.3046C20.4069 24.3046 21.7563 23.7457 22.7512 22.7508C23.7461 21.7559 24.305 20.4065 24.305 18.9995C24.305 17.5925 23.7461 16.2431 22.7512 15.2482C21.7563 14.2533 20.4069 13.6944 18.9999 13.6944C17.5929 13.6944 16.2435 14.2533 15.2486 15.2482C14.2537 16.2431 13.6947 17.5925 13.6947 18.9995C13.6947 20.4065 14.2537 21.7559 15.2486 22.7508C16.2435 23.7457 17.5929 24.3046 18.9999 24.3046Z" fill="#5E3AED"/>
</svg>
