<svg width="17" height="23" viewBox="0 0 17 23" fill="none" xmlns="http://www.w3.org/2000/svg">
<path fill-rule="evenodd" clip-rule="evenodd" d="M4.54611 0.203552H12.4535C12.7655 0.203552 13.0183 0.456307 13.0183 0.768096V1.89718C13.0183 2.20897 12.7655 2.46173 12.4535 2.46173H11.8887V6.43611C11.8863 7.19337 12.2638 7.90141 12.8941 8.32169C15.7895 10.2562 17.0778 13.8564 16.0665 17.1875C15.0553 20.5186 11.9826 22.7961 8.49982 22.7961C5.01707 22.7961 1.94438 20.5186 0.933099 17.1875C-0.0781797 13.8564 1.21009 10.2562 4.10556 8.32169C4.73579 7.90141 5.11331 7.19337 5.11093 6.43611V2.46173H4.54611C4.23417 2.46173 3.9813 2.20897 3.9813 1.89718V0.768096C3.9813 0.456307 4.23417 0.203552 4.54611 0.203552ZM11.6403 10.1962C10.3832 9.35784 9.62856 7.94684 9.62954 6.43632V2.46194H7.37028V6.43632C7.37126 7.94684 6.61667 9.35784 5.35954 10.1962C3.79444 11.2426 2.85399 12.9998 2.85176 14.8819H14.1481C14.1458 12.9998 13.2054 11.2426 11.6403 10.1962Z" fill="white"/>
</svg>
