<svg width="40" height="40" viewBox="0 0 40 40" fill="none" xmlns="http://www.w3.org/2000/svg">
<rect x="0.5" y="0.5" width="39" height="39" rx="3.5" fill="white"/>
<path d="M20.0002 12.3608C15.7813 12.3608 12.3613 15.7808 12.3613 19.9997C12.3613 23.8123 15.1549 26.9725 18.807 27.5462V22.2074H16.8667V19.9997H18.807V18.3169C18.807 16.4026 19.9467 15.3454 21.6922 15.3454C22.5279 15.3454 23.4018 15.4943 23.4018 15.4943V17.3735H22.4393C21.4898 17.3735 21.1942 17.9624 21.1942 18.5667V19.9997H23.3124L22.974 22.2074H21.1942V27.5462C24.8456 26.9733 27.6391 23.8115 27.6391 19.9997C27.6391 15.7808 24.2192 12.3608 20.0002 12.3608Z" fill="#1C2436"/>
<rect x="0.5" y="0.5" width="39" height="39" rx="3.5" stroke="#E7EAEE"/>
</svg>
