<svg width="40" height="40" viewBox="0 0 40 40" fill="none" xmlns="http://www.w3.org/2000/svg">
<rect width="40" height="40" rx="4" fill="#F6F7F9"/>
<path d="M20.0002 12.3604C15.7813 12.3604 12.3613 15.7803 12.3613 19.9992C12.3613 23.8118 15.1549 26.972 18.807 27.5457V22.2069H16.8667V19.9992H18.807V18.3164C18.807 16.4021 19.9467 15.3449 21.6922 15.3449C22.5279 15.3449 23.4018 15.4938 23.4018 15.4938V17.373H22.4393C21.4898 17.373 21.1942 17.9619 21.1942 18.5662V19.9992H23.3124L22.974 22.2069H21.1942V27.5457C24.8456 26.9728 27.6391 23.811 27.6391 19.9992C27.6391 15.7803 24.2192 12.3604 20.0002 12.3604Z" fill="#07090D"/>
</svg>
