<svg width="40" height="40" viewBox="0 0 40 40" fill="none" xmlns="http://www.w3.org/2000/svg">
<rect width="40" height="40" rx="4" fill="#F6F7F9"/>
<path d="M20.0002 12.3604C22.0757 12.3604 22.3347 12.368 23.149 12.4062C23.9625 12.4444 24.5163 12.5719 25.0037 12.7614C25.5079 12.9554 25.9326 13.2182 26.3573 13.6422C26.7457 14.024 27.0463 14.4859 27.2381 14.9958C27.4267 15.4824 27.5551 16.0369 27.5933 16.8505C27.6292 17.6648 27.6391 17.9238 27.6391 19.9992C27.6391 22.0747 27.6315 22.3337 27.5933 23.148C27.5551 23.9615 27.4267 24.5154 27.2381 25.0027C27.0468 25.5128 26.7462 25.9748 26.3573 26.3563C25.9753 26.7446 25.5134 27.0452 25.0037 27.2371C24.5171 27.4258 23.9625 27.5541 23.149 27.5923C22.3347 27.6282 22.0757 27.6381 20.0002 27.6381C17.9247 27.6381 17.6658 27.6305 16.8515 27.5923C16.0379 27.5541 15.4841 27.4258 14.9967 27.2371C14.4867 27.0457 14.0247 26.7451 13.6431 26.3563C13.2546 25.9745 12.9541 25.5126 12.7624 25.0027C12.5729 24.5161 12.4454 23.9615 12.4072 23.148C12.3713 22.3337 12.3613 22.0747 12.3613 19.9992C12.3613 17.9238 12.369 17.6648 12.4072 16.8505C12.4454 16.0362 12.5729 15.4831 12.7624 14.9958C12.9535 14.4856 13.2542 14.0236 13.6431 13.6422C14.0248 13.2535 14.4868 12.9529 14.9967 12.7614C15.4841 12.5719 16.0372 12.4444 16.8515 12.4062C17.6658 12.3703 17.9247 12.3604 20.0002 12.3604ZM20.0002 16.1798C18.9872 16.1798 18.0157 16.5822 17.2995 17.2985C16.5832 18.0148 16.1808 18.9863 16.1808 19.9992C16.1808 21.0122 16.5832 21.9837 17.2995 22.7C18.0157 23.4163 18.9872 23.8187 20.0002 23.8187C21.0132 23.8187 21.9847 23.4163 22.701 22.7C23.4173 21.9837 23.8197 21.0122 23.8197 19.9992C23.8197 18.9863 23.4173 18.0148 22.701 17.2985C21.9847 16.5822 21.0132 16.1798 20.0002 16.1798ZM24.9655 15.9888C24.9655 15.7356 24.8649 15.4927 24.6858 15.3136C24.5068 15.1346 24.2639 15.034 24.0106 15.034C23.7574 15.034 23.5145 15.1346 23.3354 15.3136C23.1564 15.4927 23.0558 15.7356 23.0558 15.9888C23.0558 16.2421 23.1564 16.4849 23.3354 16.664C23.5145 16.8431 23.7574 16.9437 24.0106 16.9437C24.2639 16.9437 24.5068 16.8431 24.6858 16.664C24.8649 16.4849 24.9655 16.2421 24.9655 15.9888ZM20.0002 17.7076C20.608 17.7076 21.1909 17.949 21.6207 18.3788C22.0504 18.8086 22.2919 19.3915 22.2919 19.9992C22.2919 20.607 22.0504 21.1899 21.6207 21.6197C21.1909 22.0495 20.608 22.2909 20.0002 22.2909C19.3924 22.2909 18.8095 22.0495 18.3798 21.6197C17.95 21.1899 17.7086 20.607 17.7086 19.9992C17.7086 19.3915 17.95 18.8086 18.3798 18.3788C18.8095 17.949 19.3924 17.7076 20.0002 17.7076Z" fill="#07090D"/>
</svg>
