<svg width="40" height="40" viewBox="0 0 40 40" fill="none" xmlns="http://www.w3.org/2000/svg">
<rect x="0.5" y="0.5" width="39" height="39" rx="3.5" fill="white"/>
<path d="M20.0002 12.3608C22.0757 12.3608 22.3347 12.3685 23.149 12.4067C23.9625 12.4449 24.5163 12.5724 25.0037 12.7619C25.5079 12.9559 25.9326 13.2187 26.3573 13.6426C26.7457 14.0245 27.0463 14.4864 27.2381 14.9963C27.4267 15.4829 27.5551 16.0374 27.5933 16.851C27.6292 17.6653 27.6391 17.9242 27.6391 19.9997C27.6391 22.0752 27.6315 22.3342 27.5933 23.1485C27.5551 23.962 27.4267 24.5158 27.2381 25.0032C27.0468 25.5133 26.7462 25.9753 26.3573 26.3568C25.9753 26.7451 25.5134 27.0457 25.0037 27.2376C24.5171 27.4263 23.9625 27.5546 23.149 27.5928C22.3347 27.6287 22.0757 27.6386 20.0002 27.6386C17.9247 27.6386 17.6658 27.631 16.8515 27.5928C16.0379 27.5546 15.4841 27.4263 14.9967 27.2376C14.4867 27.0462 14.0247 26.7456 13.6431 26.3568C13.2546 25.975 12.9541 25.5131 12.7624 25.0032C12.5729 24.5166 12.4454 23.962 12.4072 23.1485C12.3713 22.3342 12.3613 22.0752 12.3613 19.9997C12.3613 17.9242 12.369 17.6653 12.4072 16.851C12.4454 16.0367 12.5729 15.4836 12.7624 14.9963C12.9535 14.4861 13.2542 14.0241 13.6431 13.6426C14.0248 13.254 14.4868 12.9534 14.9967 12.7619C15.4841 12.5724 16.0372 12.4449 16.8515 12.4067C17.6658 12.3708 17.9247 12.3608 20.0002 12.3608ZM20.0002 16.1803C18.9872 16.1803 18.0157 16.5827 17.2995 17.299C16.5832 18.0153 16.1808 18.9867 16.1808 19.9997C16.1808 21.0127 16.5832 21.9842 17.2995 22.7005C18.0157 23.4168 18.9872 23.8192 20.0002 23.8192C21.0132 23.8192 21.9847 23.4168 22.701 22.7005C23.4173 21.9842 23.8197 21.0127 23.8197 19.9997C23.8197 18.9867 23.4173 18.0153 22.701 17.299C21.9847 16.5827 21.0132 16.1803 20.0002 16.1803ZM24.9655 15.9893C24.9655 15.7361 24.8649 15.4932 24.6858 15.3141C24.5068 15.1351 24.2639 15.0345 24.0106 15.0345C23.7574 15.0345 23.5145 15.1351 23.3354 15.3141C23.1564 15.4932 23.0558 15.7361 23.0558 15.9893C23.0558 16.2426 23.1564 16.4854 23.3354 16.6645C23.5145 16.8436 23.7574 16.9442 24.0106 16.9442C24.2639 16.9442 24.5068 16.8436 24.6858 16.6645C24.8649 16.4854 24.9655 16.2426 24.9655 15.9893ZM20.0002 17.7081C20.608 17.7081 21.1909 17.9495 21.6207 18.3793C22.0504 18.809 22.2919 19.3919 22.2919 19.9997C22.2919 20.6075 22.0504 21.1904 21.6207 21.6202C21.1909 22.05 20.608 22.2914 20.0002 22.2914C19.3924 22.2914 18.8095 22.05 18.3798 21.6202C17.95 21.1904 17.7086 20.6075 17.7086 19.9997C17.7086 19.3919 17.95 18.809 18.3798 18.3793C18.8095 17.9495 19.3924 17.7081 20.0002 17.7081Z" fill="#1C2436"/>
<rect x="0.5" y="0.5" width="39" height="39" rx="3.5" stroke="#E7EAEE"/>
</svg>
