<svg width="21" height="21" viewBox="0 0 21 21" fill="none" xmlns="http://www.w3.org/2000/svg">
<path fill-rule="evenodd" clip-rule="evenodd" d="M18.4071 5.98149H17.7971C18.1953 5.29504 18.4057 4.51582 18.4071 3.72223C18.4071 1.8506 16.8898 0.333344 15.0182 0.333344C13.1851 0.557719 11.538 1.56242 10.4997 3.08964C9.46131 1.56242 7.81426 0.557719 5.98116 0.333344C4.10952 0.333344 2.59227 1.8506 2.59227 3.72223C2.59368 4.51582 2.80406 5.29504 3.20227 5.98149H2.59227C1.34451 5.98149 0.333008 6.993 0.333008 8.24075V11.6296C0.333008 12.2535 0.83876 12.7593 1.46264 12.7593H2.59227V18.4074C2.59227 19.6552 3.60377 20.6667 4.85153 20.6667H16.1478C17.3956 20.6667 18.4071 19.6552 18.4071 18.4074V12.7593H19.5367C20.1606 12.7593 20.6663 12.2535 20.6663 11.6296V8.24075C20.6663 6.993 19.6548 5.98149 18.4071 5.98149ZM15.0178 2.59256C15.6417 2.59256 16.1474 3.09831 16.1474 3.72219C16.1486 4.47368 15.776 5.17654 15.1534 5.59737C14.7794 5.8487 14.3388 5.98245 13.8882 5.98145H11.6289C11.6289 4.75015 13.7865 2.59256 15.0178 2.59256ZM5.98115 2.59256C5.35728 2.59256 4.85152 3.09831 4.85152 3.72219C4.85152 4.96995 5.86303 5.98145 7.11078 5.98145H9.37004C9.37004 4.75015 7.21245 2.59256 5.98115 2.59256ZM2.5918 8.24072H9.36957V10.5H2.5918V8.24072ZM9.37004 12.7592H4.85152V18.4074H9.37004V12.7592ZM11.6289 18.4074V12.7592H16.1474V18.4074H11.6289ZM11.6289 8.24072V10.5H18.4067V8.24072H11.6289Z" fill="white"/>
</svg>
