<svg width="25" height="26" viewBox="0 0 25 26" fill="none" xmlns="http://www.w3.org/2000/svg">
<path d="M25 13C25 6.09476 19.4052 0.5 12.5 0.5C5.59476 0.5 0 6.09476 0 13C0 19.9052 5.59476 25.5 12.5 25.5C19.4052 25.5 25 19.9052 25 13ZM2.41935 13C2.41935 7.43044 6.93044 2.91935 12.5 2.91935C18.0696 2.91935 22.5806 7.43044 22.5806 13C22.5806 18.5696 18.0696 23.0806 12.5 23.0806C6.93044 23.0806 2.41935 18.5696 2.41935 13ZM6.04839 14.0081V11.9919C6.04839 11.6593 6.32056 11.3871 6.65323 11.3871H12.5V8.01008C12.5 7.47077 13.1502 7.20363 13.5333 7.58165L18.5232 12.5716C18.7601 12.8085 18.7601 13.1915 18.5232 13.4284L13.5333 18.4183C13.1502 18.8014 12.5 18.5292 12.5 17.9899V14.6129H6.65323C6.32056 14.6129 6.04839 14.3407 6.04839 14.0081Z" fill="#4F4F4F"/>
</svg>
