<svg width="19" height="23" viewBox="0 0 19 23" fill="none" xmlns="http://www.w3.org/2000/svg">
<path fill-rule="evenodd" clip-rule="evenodd" d="M10.6296 4.72222H17.9721C18.2841 4.72222 18.537 4.9751 18.537 5.28704V15.4537C18.537 15.7656 18.2841 16.0185 17.9721 16.0185H10.6296C9.3818 16.0185 8.3703 15.007 8.3703 13.7593H2.72215V22.2315C2.72215 22.5434 2.46927 22.7963 2.15734 22.7963H1.02771C0.715767 22.7963 0.462891 22.5434 0.462891 22.2315V0.76852C0.462891 0.456581 0.715767 0.203705 1.02771 0.203705H2.15734C2.46927 0.203705 2.72215 0.456581 2.72215 0.76852V2.46296H8.3703C9.61805 2.46296 10.6296 3.47447 10.6296 4.72222ZM2.72168 11.5H8.36983V4.7222H2.72168V11.5Z" fill="white"/>
</svg>
