<svg width="23" height="23" viewBox="0 0 23 23" fill="none" xmlns="http://www.w3.org/2000/svg">
<path d="M20.6663 15.889H19.5367C18.9128 15.889 18.4071 16.3948 18.4071 17.0187V20.4076C18.4071 21.6553 17.3956 22.6668 16.1478 22.6668H12.7589C12.1351 22.6668 11.6293 22.1611 11.6293 21.5372V20.4076C11.6293 19.1598 10.6178 18.1483 9.37004 18.1483C8.12229 18.1483 7.11079 19.1598 7.11079 20.4076V21.5372C7.11079 22.1611 6.60503 22.6668 5.98116 22.6668H2.59227C1.34451 22.6668 0.333008 21.6553 0.333008 20.4076V17.0187C0.333008 16.3948 0.83876 15.889 1.46264 15.889H2.59227C3.84002 15.889 4.85153 14.8775 4.85153 13.6298C4.85153 12.382 3.84002 11.3705 2.59227 11.3705H1.46264C0.83876 11.3705 0.333008 10.8648 0.333008 10.2409V6.852C0.333008 5.60424 1.34451 4.59274 2.59227 4.59274H5.98116C6.60503 4.59274 7.11079 4.08698 7.11079 3.46311V2.33348C7.11079 1.08572 8.12229 0.0742188 9.37004 0.0742188C10.6178 0.0742187 11.6293 1.08572 11.6293 2.33348V3.46311C11.6293 4.08698 12.1351 4.59274 12.7589 4.59274H16.1478C17.3956 4.59274 18.4071 5.60424 18.4071 6.852V10.2409C18.4071 10.8648 18.9128 11.3705 19.5367 11.3705H20.6663C21.9141 11.3705 22.9256 12.382 22.9256 13.6298C22.9256 14.8775 21.9141 15.889 20.6663 15.889Z" fill="white"/>
</svg>
