<svg width="981" height="70" viewBox="0 0 981 70" fill="none" xmlns="http://www.w3.org/2000/svg">
<path d="M14.2539 53H25.0179V13.67H38.9559V4.148H0.315863V13.67H14.2539V53ZM57.1643 41.891C55.4393 44.237 53.1623 45.962 49.7813 45.962C45.7793 45.962 42.8123 43.409 41.9843 39.476H65.9963V36.233C65.9963 25.538 59.9243 18.638 50.2643 18.638C39.9143 18.638 31.6343 25.538 31.6343 36.233C31.6343 46.928 39.9143 53.828 50.2643 53.828C55.6463 53.828 61.0973 51.413 64.4093 47.204L57.1643 41.891ZM41.9843 32.438C42.2603 29.195 44.7443 26.09 49.2983 26.09C53.0243 26.09 55.7153 28.988 55.6463 32.438H41.9843ZM99.0624 23.123C95.8194 19.811 91.0584 18.638 87.1254 18.638C76.7754 18.638 68.4954 25.538 68.4954 36.233C68.4954 46.928 76.7754 53.828 87.1254 53.828C91.0584 53.828 95.8194 52.655 99.0624 49.343L92.2314 42.167C91.0584 43.547 89.4024 44.72 87.1254 44.72C81.9504 44.72 78.8454 41.27 78.8454 36.233C78.8454 31.196 81.9504 27.746 87.1254 27.746C89.2644 27.746 91.1964 28.85 92.2314 30.299L99.0624 23.123ZM100.058 0.835997V53H110.408V36.302C110.408 31.955 111.236 27.746 116.618 27.746C121.931 27.746 122 32.714 122 36.578V53H132.35V34.508C132.35 25.538 130.418 18.638 119.93 18.638C114.893 18.638 111.512 21.398 110.546 24.02H110.408V0.835997H100.058ZM136.919 53H147.269V36.302C147.269 31.955 148.097 27.746 153.479 27.746C158.792 27.746 158.861 32.714 158.861 36.578V53H169.211V34.508C169.211 25.538 167.279 18.638 156.791 18.638C151.754 18.638 148.373 21.398 146.993 24.02H146.855V19.466H136.919V53ZM172.538 36.233C172.538 46.928 180.818 53.828 191.168 53.828C201.518 53.828 209.798 46.928 209.798 36.233C209.798 25.538 201.518 18.638 191.168 18.638C180.818 18.638 172.538 25.538 172.538 36.233ZM182.888 36.233C182.888 31.196 185.993 27.746 191.168 27.746C196.343 27.746 199.448 31.196 199.448 36.233C199.448 41.27 196.343 44.72 191.168 44.72C185.993 44.72 182.888 41.27 182.888 36.233ZM213.272 53H223.622V0.835997H213.272V53ZM227.056 36.233C227.056 46.928 235.336 53.828 245.686 53.828C256.036 53.828 264.316 46.928 264.316 36.233C264.316 25.538 256.036 18.638 245.686 18.638C235.336 18.638 227.056 25.538 227.056 36.233ZM237.406 36.233C237.406 31.196 240.511 27.746 245.686 27.746C250.861 27.746 253.966 31.196 253.966 36.233C253.966 41.27 250.861 44.72 245.686 44.72C240.511 44.72 237.406 41.27 237.406 36.233ZM302.842 19.466H293.32V23.882H293.182C291.595 21.467 287.593 18.638 281.728 18.638C272.206 18.638 266.41 27.194 266.41 36.095C266.41 46.238 272.965 53.414 282.901 53.414C286.006 53.414 290.008 52.241 292.354 48.998H292.492V52.241C292.492 57.002 289.525 60.452 283.246 60.452C279.037 60.452 275.518 58.796 272.344 56.105L266.617 64.661C271.447 68.525 277.519 69.56 283.453 69.56C296.425 69.56 302.842 62.798 302.842 50.171V19.466ZM276.76 36.026C276.76 31.679 280.348 27.746 285.04 27.746C289.732 27.746 293.32 31.679 293.32 36.026C293.32 40.373 289.732 44.306 285.04 44.306C280.348 44.306 276.76 40.373 276.76 36.026ZM342.854 19.466H332.228L324.845 41.615H324.707L316.082 19.466H304.904L319.601 53.276L318.842 55.208C317.393 58.865 316.634 60.866 311.942 60.866C310.217 60.866 308.699 60.521 307.112 59.831L305.732 68.318C308.216 69.146 310.838 69.56 313.46 69.56C323.327 69.56 324.914 65.558 327.674 58.451L342.854 19.466ZM362.558 53H372.08V48.584H372.218C373.805 50.999 377.807 53.828 382.499 53.828C392.435 53.828 398.99 46.652 398.99 36.509C398.99 27.194 393.194 18.638 383.672 18.638C379.394 18.638 375.392 19.811 373.046 23.054H372.908V0.835997H362.558V53ZM372.08 36.233C372.08 31.196 375.185 27.746 380.36 27.746C385.535 27.746 388.64 31.196 388.64 36.233C388.64 41.27 385.535 44.72 380.36 44.72C375.185 44.72 372.08 41.27 372.08 36.233ZM426.789 41.891C425.064 44.237 422.787 45.962 419.406 45.962C415.404 45.962 412.437 43.409 411.609 39.476H435.621V36.233C435.621 25.538 429.549 18.638 419.889 18.638C409.539 18.638 401.259 25.538 401.259 36.233C401.259 46.928 409.539 53.828 419.889 53.828C425.271 53.828 430.722 51.413 434.034 47.204L426.789 41.891ZM411.609 32.438C411.885 29.195 414.369 26.09 418.923 26.09C422.649 26.09 425.34 28.988 425.271 32.438H411.609ZM439.293 53H449.643V0.835997H439.293V53ZM453.077 36.233C453.077 46.928 461.357 53.828 471.707 53.828C482.057 53.828 490.337 46.928 490.337 36.233C490.337 25.538 482.057 18.638 471.707 18.638C461.357 18.638 453.077 25.538 453.077 36.233ZM463.427 36.233C463.427 31.196 466.532 27.746 471.707 27.746C476.882 27.746 479.987 31.196 479.987 36.233C479.987 41.27 476.882 44.72 471.707 44.72C466.532 44.72 463.427 41.27 463.427 36.233ZM493.673 53H504.023V36.302C504.023 31.955 504.851 27.746 510.233 27.746C515.546 27.746 515.615 32.714 515.615 36.578V53H525.965V34.508C525.965 25.538 524.033 18.638 513.545 18.638C508.508 18.638 505.127 21.398 503.747 24.02H503.609V19.466H493.673V53ZM565.724 19.466H556.202V23.882H556.064C554.477 21.467 550.475 18.638 544.61 18.638C535.088 18.638 529.292 27.194 529.292 36.095C529.292 46.238 535.847 53.414 545.783 53.414C548.888 53.414 552.89 52.241 555.236 48.998H555.374V52.241C555.374 57.002 552.407 60.452 546.128 60.452C541.919 60.452 538.4 58.796 535.226 56.105L529.499 64.661C534.329 68.525 540.401 69.56 546.335 69.56C559.307 69.56 565.724 62.798 565.724 50.171V19.466ZM539.642 36.026C539.642 31.679 543.23 27.746 547.922 27.746C552.614 27.746 556.202 31.679 556.202 36.026C556.202 40.373 552.614 44.306 547.922 44.306C543.23 44.306 539.642 40.373 539.642 36.026ZM596.559 23.054C593.454 19.742 588.555 18.638 584.139 18.638C577.101 18.638 570.063 22.088 570.063 29.954C570.063 42.719 587.52 38.165 587.52 43.547C587.52 45.341 585.174 45.962 582.828 45.962C579.723 45.962 577.446 44.651 575.514 42.305L569.235 49.274C572.547 52.655 577.722 53.828 582.414 53.828C589.59 53.828 597.87 51.344 597.87 42.788C597.87 30.023 580.413 34.232 580.413 29.264C580.413 27.263 582.483 26.504 584.208 26.504C586.692 26.504 588.693 27.47 590.211 29.333L596.559 23.054ZM640.911 19.466H631.803V9.53H621.453V19.466H614.829V27.746H621.453V43.685C621.453 50.999 626.766 53.828 633.666 53.828C636.081 53.828 638.634 53.621 640.911 52.793V44.168C640.014 44.996 637.806 45.134 636.702 45.134C632.217 45.134 631.803 42.512 631.803 38.924V27.746H640.911V19.466ZM642.169 36.233C642.169 46.928 650.449 53.828 660.799 53.828C671.149 53.828 679.429 46.928 679.429 36.233C679.429 25.538 671.149 18.638 660.799 18.638C650.449 18.638 642.169 25.538 642.169 36.233ZM652.519 36.233C652.519 31.196 655.624 27.746 660.799 27.746C665.974 27.746 669.079 31.196 669.079 36.233C669.079 41.27 665.974 44.72 660.799 44.72C655.624 44.72 652.519 41.27 652.519 36.233Z" fill="#131316"/>
<path d="M724.917 41.891C723.192 44.237 720.915 45.962 717.534 45.962C713.532 45.962 710.565 43.409 709.737 39.476H733.749V36.233C733.749 25.538 727.677 18.638 718.017 18.638C707.667 18.638 699.387 25.538 699.387 36.233C699.387 46.928 707.667 53.828 718.017 53.828C723.399 53.828 728.85 51.413 732.162 47.204L724.917 41.891ZM709.737 32.438C710.013 29.195 712.497 26.09 717.051 26.09C720.777 26.09 723.468 28.988 723.399 32.438H709.737ZM747.633 53H758.604L771.852 19.466H761.433L753.567 42.236H753.429L744.942 19.466H733.764L747.633 53ZM797.359 41.891C795.634 44.237 793.357 45.962 789.976 45.962C785.974 45.962 783.007 43.409 782.179 39.476H806.191V36.233C806.191 25.538 800.119 18.638 790.459 18.638C780.109 18.638 771.829 25.538 771.829 36.233C771.829 46.928 780.109 53.828 790.459 53.828C795.841 53.828 801.292 51.413 804.604 47.204L797.359 41.891ZM782.179 32.438C782.455 29.195 784.939 26.09 789.493 26.09C793.219 26.09 795.91 28.988 795.841 32.438H782.179ZM809.725 53H820.075V38.993C820.075 32.3 821.041 27.746 828.907 27.746C830.425 27.746 831.874 28.022 833.323 28.436V18.983C832.357 18.707 831.046 18.638 829.873 18.638C825.319 18.638 822.421 20.777 820.213 24.848H820.075V19.466H809.725V53ZM869.564 19.466H858.938L851.555 41.615H851.417L842.792 19.466H831.614L846.311 53.276L845.552 55.208C844.103 58.865 843.344 60.866 838.652 60.866C836.927 60.866 835.409 60.521 833.822 59.831L832.442 68.318C834.926 69.146 837.548 69.56 840.17 69.56C850.037 69.56 851.624 65.558 854.384 58.451L869.564 19.466ZM869.403 36.233C869.403 46.928 877.683 53.828 888.033 53.828C898.383 53.828 906.663 46.928 906.663 36.233C906.663 25.538 898.383 18.638 888.033 18.638C877.683 18.638 869.403 25.538 869.403 36.233ZM879.753 36.233C879.753 31.196 882.858 27.746 888.033 27.746C893.208 27.746 896.313 31.196 896.313 36.233C896.313 41.27 893.208 44.72 888.033 44.72C882.858 44.72 879.753 41.27 879.753 36.233ZM909.999 53H920.349V36.302C920.349 31.955 921.177 27.746 926.559 27.746C931.872 27.746 931.941 32.714 931.941 36.578V53H942.291V34.508C942.291 25.538 940.359 18.638 929.871 18.638C924.834 18.638 921.453 21.398 920.073 24.02H919.935V19.466H909.999V53ZM971.355 41.891C969.63 44.237 967.353 45.962 963.972 45.962C959.97 45.962 957.003 43.409 956.175 39.476H980.187V36.233C980.187 25.538 974.115 18.638 964.455 18.638C954.105 18.638 945.825 25.538 945.825 36.233C945.825 46.928 954.105 53.828 964.455 53.828C969.837 53.828 975.288 51.413 978.6 47.204L971.355 41.891ZM956.175 32.438C956.451 29.195 958.935 26.09 963.489 26.09C967.215 26.09 969.906 28.988 969.837 32.438H956.175Z" fill="url(#paint0_linear_13447_42928)"/>
<defs>
<linearGradient id="paint0_linear_13447_42928" x1="690" y1="27.5001" x2="950" y2="35" gradientUnits="userSpaceOnUse">
<stop stop-color="#0038FF"/>
<stop offset="1" stop-color="#AD00FF"/>
</linearGradient>
</defs>
</svg>
