<svg width="40" height="40" viewBox="0 0 40 40" fill="none" xmlns="http://www.w3.org/2000/svg">
<rect x="0.5" y="0.5" width="39" height="39" rx="3.5" fill="white"/>
<path d="M27.7627 15.1538C27.1795 15.4118 26.5611 15.5812 25.9279 15.6564C26.5953 15.2572 27.0949 14.629 27.3334 13.8888C26.707 14.2616 26.0203 14.5228 25.3045 14.6641C24.8237 14.1497 24.1865 13.8086 23.4918 13.6937C22.7971 13.5788 22.0839 13.6967 21.4631 14.0289C20.8423 14.3612 20.3487 14.8892 20.059 15.531C19.7693 16.1727 19.6997 16.8922 19.8611 17.5776C18.5908 17.5139 17.3481 17.1838 16.2137 16.6087C15.0793 16.0336 14.0785 15.2264 13.2763 14.2394C12.9924 14.7271 12.8432 15.2815 12.844 15.8459C12.844 16.9535 13.4077 17.9321 14.2648 18.505C13.7576 18.489 13.2615 18.352 12.818 18.1055V18.1452C12.8182 18.8829 13.0734 19.5978 13.5405 20.1688C14.0076 20.7397 14.6578 21.1316 15.3809 21.2779C14.91 21.4055 14.4163 21.4243 13.9371 21.3329C14.141 21.9679 14.5383 22.5232 15.0735 22.9211C15.6086 23.319 16.2548 23.5396 16.9216 23.552C16.2589 24.0724 15.5002 24.4572 14.6887 24.6842C13.8772 24.9112 13.0289 24.9761 12.1924 24.875C13.6527 25.8142 15.3527 26.3128 17.0889 26.3111C22.9655 26.3111 26.1792 21.4429 26.1792 17.2209C26.1792 17.0834 26.1754 16.9443 26.1693 16.8084C26.7948 16.3563 27.3346 15.7962 27.7635 15.1546L27.7627 15.1538Z" fill="#1C2436"/>
<rect x="0.5" y="0.5" width="39" height="39" rx="3.5" stroke="#E7EAEE"/>
</svg>
