<svg width="40" height="40" viewBox="0 0 40 40" fill="none" xmlns="http://www.w3.org/2000/svg">
<rect width="40" height="40" rx="4" fill="#F6F7F9"/>
<path d="M27.7627 15.1543C27.1795 15.4122 26.5611 15.5817 25.9279 15.6569C26.5953 15.2577 27.0949 14.6295 27.3334 13.8893C26.707 14.2621 26.0203 14.5233 25.3045 14.6646C24.8237 14.1502 24.1865 13.809 23.4918 13.6942C22.7971 13.5793 22.0839 13.6972 21.4631 14.0294C20.8423 14.3617 20.3487 14.8897 20.059 15.5315C19.7693 16.1732 19.6997 16.8927 19.8611 17.5781C18.5908 17.5144 17.3481 17.1843 16.2137 16.6092C15.0793 16.0341 14.0785 15.2269 13.2763 14.2399C12.9924 14.7276 12.8432 15.282 12.844 15.8464C12.844 16.954 13.4077 17.9325 14.2648 18.5055C13.7576 18.4895 13.2615 18.3525 12.818 18.1059V18.1457C12.8182 18.8834 13.0734 19.5983 13.5405 20.1693C14.0076 20.7402 14.6578 21.1321 15.3809 21.2784C14.91 21.406 14.4163 21.4248 13.9371 21.3334C14.141 21.9683 14.5383 22.5237 15.0735 22.9216C15.6086 23.3195 16.2548 23.5401 16.9216 23.5525C16.2589 24.0729 15.5002 24.4577 14.6887 24.6847C13.8772 24.9117 13.0289 24.9766 12.1924 24.8755C13.6527 25.8147 15.3527 26.3133 17.0889 26.3116C22.9655 26.3116 26.1792 21.4434 26.1792 17.2214C26.1792 17.0839 26.1754 16.9448 26.1693 16.8089C26.7948 16.3568 27.3346 15.7967 27.7635 15.155L27.7627 15.1543Z" fill="#07090D"/>
</svg>
