<svg width="21" height="23" viewBox="0 0 21 23" fill="none" xmlns="http://www.w3.org/2000/svg">
<path fill-rule="evenodd" clip-rule="evenodd" d="M20.3613 5.98738L20.2032 5.70497C19.9992 5.36347 19.7115 5.07964 19.3673 4.88034L11.7875 0.508674C11.4442 0.309573 11.0546 0.204378 10.6578 0.203674H10.3302C9.93344 0.204378 9.54383 0.309573 9.2006 0.508674L1.62079 4.89164C1.27848 5.08961 0.994129 5.37396 0.796156 5.71627L0.638008 5.99867C0.438907 6.3419 0.333712 6.73151 0.333008 7.1283V15.8829C0.333712 16.2797 0.438907 16.6693 0.638008 17.0126L0.796156 17.295C0.999252 17.6333 1.28245 17.9165 1.62079 18.1196L9.2119 22.4913C9.55339 22.6945 9.94415 22.8 10.3415 22.7963H10.6578C11.0546 22.7956 11.4442 22.6904 11.7875 22.4913L19.3673 18.1083C19.713 17.9148 19.9984 17.6294 20.1919 17.2837L20.3613 17.0013C20.558 16.657 20.663 16.2681 20.6663 15.8716V7.11701C20.6656 6.72021 20.5604 6.3306 20.3613 5.98738ZM10.3302 2.4629H10.6578L17.2774 6.28105L10.4997 10.1896L3.72189 6.28105L10.3302 2.4629ZM11.6289 19.9721L18.2372 16.154L18.4067 15.8716V8.23529L11.6289 12.1551V19.9721Z" fill="white"/>
</svg>
